<svg width="505" height="170" viewBox="0 0 505 170" fill="none" xmlns="http://www.w3.org/2000/svg">
<path d="M200.495 163.211C200.407 164.435 199.953 165.398 199.136 166.102C198.323 166.805 197.25 167.156 195.917 167.156C194.459 167.156 193.31 166.667 192.472 165.688C191.638 164.703 191.222 163.354 191.222 161.641V160.945C191.222 159.852 191.414 158.888 191.8 158.055C192.185 157.221 192.735 156.583 193.448 156.141C194.167 155.693 195 155.469 195.948 155.469C197.261 155.469 198.318 155.82 199.12 156.523C199.922 157.227 200.386 158.214 200.511 159.484H198.167C198.11 158.75 197.904 158.219 197.55 157.891C197.201 157.557 196.667 157.391 195.948 157.391C195.167 157.391 194.581 157.672 194.19 158.234C193.805 158.792 193.607 159.659 193.597 160.836V161.695C193.597 162.924 193.782 163.823 194.151 164.391C194.526 164.958 195.115 165.242 195.917 165.242C196.641 165.242 197.18 165.078 197.534 164.75C197.894 164.417 198.099 163.904 198.151 163.211H200.495ZM206.784 167C206.68 166.797 206.604 166.544 206.558 166.242C206.011 166.852 205.3 167.156 204.425 167.156C203.597 167.156 202.909 166.917 202.362 166.438C201.821 165.958 201.55 165.354 201.55 164.625C201.55 163.729 201.881 163.042 202.542 162.562C203.209 162.083 204.17 161.841 205.425 161.836H206.464V161.352C206.464 160.961 206.362 160.648 206.159 160.414C205.961 160.18 205.646 160.062 205.214 160.062C204.834 160.062 204.534 160.154 204.315 160.336C204.102 160.518 203.995 160.768 203.995 161.086H201.737C201.737 160.596 201.888 160.143 202.19 159.727C202.493 159.31 202.92 158.984 203.472 158.75C204.024 158.51 204.644 158.391 205.331 158.391C206.373 158.391 207.198 158.654 207.808 159.18C208.422 159.701 208.729 160.435 208.729 161.383V165.047C208.735 165.849 208.847 166.456 209.065 166.867V167H206.784ZM204.917 165.43C205.25 165.43 205.558 165.357 205.839 165.211C206.12 165.06 206.328 164.859 206.464 164.609V163.156H205.62C204.49 163.156 203.888 163.547 203.815 164.328L203.808 164.461C203.808 164.742 203.907 164.974 204.104 165.156C204.302 165.339 204.573 165.43 204.917 165.43ZM210.112 162.711C210.112 161.393 210.407 160.344 210.995 159.562C211.589 158.781 212.399 158.391 213.425 158.391C214.248 158.391 214.927 158.698 215.464 159.312V155H217.729V167H215.69L215.581 166.102C215.019 166.805 214.295 167.156 213.409 167.156C212.414 167.156 211.615 166.766 211.011 165.984C210.412 165.198 210.112 164.107 210.112 162.711ZM212.37 162.875C212.37 163.667 212.508 164.273 212.784 164.695C213.06 165.117 213.461 165.328 213.987 165.328C214.685 165.328 215.177 165.034 215.464 164.445V161.109C215.183 160.521 214.696 160.227 214.003 160.227C212.914 160.227 212.37 161.109 212.37 162.875ZM224.378 167C224.274 166.797 224.198 166.544 224.151 166.242C223.604 166.852 222.894 167.156 222.019 167.156C221.19 167.156 220.503 166.917 219.956 166.438C219.414 165.958 219.144 165.354 219.144 164.625C219.144 163.729 219.474 163.042 220.136 162.562C220.802 162.083 221.763 161.841 223.019 161.836H224.058V161.352C224.058 160.961 223.956 160.648 223.753 160.414C223.555 160.18 223.24 160.062 222.808 160.062C222.427 160.062 222.128 160.154 221.909 160.336C221.696 160.518 221.589 160.768 221.589 161.086H219.331C219.331 160.596 219.482 160.143 219.784 159.727C220.086 159.31 220.513 158.984 221.065 158.75C221.618 158.51 222.237 158.391 222.925 158.391C223.966 158.391 224.792 158.654 225.401 159.18C226.016 159.701 226.323 160.435 226.323 161.383V165.047C226.328 165.849 226.44 166.456 226.659 166.867V167H224.378ZM222.511 165.43C222.844 165.43 223.151 165.357 223.433 165.211C223.714 165.06 223.922 164.859 224.058 164.609V163.156H223.214C222.084 163.156 221.482 163.547 221.409 164.328L221.401 164.461C221.401 164.742 221.5 164.974 221.698 165.156C221.896 165.339 222.167 165.43 222.511 165.43ZM232.636 164.664C232.636 164.388 232.498 164.172 232.222 164.016C231.951 163.854 231.513 163.711 230.909 163.586C228.899 163.164 227.894 162.31 227.894 161.023C227.894 160.273 228.203 159.648 228.823 159.148C229.448 158.643 230.263 158.391 231.269 158.391C232.341 158.391 233.198 158.643 233.839 159.148C234.485 159.654 234.808 160.31 234.808 161.117H232.55C232.55 160.794 232.446 160.529 232.237 160.32C232.029 160.107 231.703 160 231.261 160C230.881 160 230.586 160.086 230.378 160.258C230.17 160.43 230.065 160.648 230.065 160.914C230.065 161.164 230.183 161.367 230.417 161.523C230.657 161.674 231.058 161.807 231.62 161.922C232.183 162.031 232.657 162.156 233.042 162.297C234.235 162.734 234.831 163.492 234.831 164.57C234.831 165.341 234.5 165.966 233.839 166.445C233.177 166.919 232.323 167.156 231.276 167.156C230.568 167.156 229.938 167.031 229.386 166.781C228.839 166.526 228.409 166.18 228.097 165.742C227.784 165.299 227.628 164.823 227.628 164.312H229.769C229.789 164.714 229.938 165.021 230.214 165.234C230.49 165.448 230.86 165.555 231.323 165.555C231.756 165.555 232.081 165.474 232.3 165.312C232.524 165.146 232.636 164.93 232.636 164.664ZM238.995 156.469V158.547H240.44V160.203H238.995V164.422C238.995 164.734 239.055 164.958 239.175 165.094C239.295 165.229 239.524 165.297 239.862 165.297C240.112 165.297 240.334 165.279 240.526 165.242V166.953C240.084 167.089 239.628 167.156 239.159 167.156C237.576 167.156 236.769 166.357 236.737 164.758V160.203H235.503V158.547H236.737V156.469H238.995ZM246.448 160.664C246.141 160.622 245.87 160.602 245.636 160.602C244.782 160.602 244.222 160.891 243.956 161.469V167H241.698V158.547H243.831L243.894 159.555C244.347 158.779 244.974 158.391 245.776 158.391C246.026 158.391 246.261 158.424 246.479 158.492L246.448 160.664ZM251.276 167.156C250.037 167.156 249.026 166.776 248.245 166.016C247.469 165.255 247.081 164.242 247.081 162.977V162.758C247.081 161.909 247.245 161.151 247.573 160.484C247.901 159.812 248.365 159.297 248.964 158.938C249.568 158.573 250.256 158.391 251.026 158.391C252.183 158.391 253.091 158.755 253.753 159.484C254.42 160.214 254.753 161.247 254.753 162.586V163.508H249.37C249.443 164.06 249.662 164.503 250.026 164.836C250.396 165.169 250.862 165.336 251.425 165.336C252.295 165.336 252.974 165.021 253.464 164.391L254.573 165.633C254.235 166.112 253.776 166.487 253.198 166.758C252.62 167.023 251.979 167.156 251.276 167.156ZM251.019 160.219C250.571 160.219 250.206 160.37 249.925 160.672C249.649 160.974 249.472 161.406 249.394 161.969H252.534V161.789C252.524 161.289 252.388 160.904 252.128 160.633C251.868 160.357 251.498 160.219 251.019 160.219ZM260.433 163.039H256.034V161.219H260.433V163.039ZM266.823 164.664C266.823 164.388 266.685 164.172 266.409 164.016C266.138 163.854 265.701 163.711 265.097 163.586C263.086 163.164 262.081 162.31 262.081 161.023C262.081 160.273 262.391 159.648 263.011 159.148C263.636 158.643 264.451 158.391 265.456 158.391C266.529 158.391 267.386 158.643 268.026 159.148C268.672 159.654 268.995 160.31 268.995 161.117H266.737C266.737 160.794 266.633 160.529 266.425 160.32C266.216 160.107 265.891 160 265.448 160C265.068 160 264.774 160.086 264.565 160.258C264.357 160.43 264.253 160.648 264.253 160.914C264.253 161.164 264.37 161.367 264.604 161.523C264.844 161.674 265.245 161.807 265.808 161.922C266.37 162.031 266.844 162.156 267.229 162.297C268.422 162.734 269.019 163.492 269.019 164.57C269.019 165.341 268.688 165.966 268.026 166.445C267.365 166.919 266.511 167.156 265.464 167.156C264.756 167.156 264.125 167.031 263.573 166.781C263.026 166.526 262.597 166.18 262.284 165.742C261.972 165.299 261.815 164.823 261.815 164.312H263.956C263.977 164.714 264.125 165.021 264.401 165.234C264.677 165.448 265.047 165.555 265.511 165.555C265.943 165.555 266.269 165.474 266.487 165.312C266.711 165.146 266.823 164.93 266.823 164.664ZM274.37 167.156C273.131 167.156 272.12 166.776 271.339 166.016C270.563 165.255 270.175 164.242 270.175 162.977V162.758C270.175 161.909 270.339 161.151 270.667 160.484C270.995 159.812 271.459 159.297 272.058 158.938C272.662 158.573 273.349 158.391 274.12 158.391C275.276 158.391 276.185 158.755 276.847 159.484C277.513 160.214 277.847 161.247 277.847 162.586V163.508H272.464C272.537 164.06 272.756 164.503 273.12 164.836C273.49 165.169 273.956 165.336 274.519 165.336C275.388 165.336 276.068 165.021 276.558 164.391L277.667 165.633C277.328 166.112 276.87 166.487 276.292 166.758C275.714 167.023 275.073 167.156 274.37 167.156ZM274.112 160.219C273.664 160.219 273.3 160.37 273.019 160.672C272.743 160.974 272.565 161.406 272.487 161.969H275.628V161.789C275.618 161.289 275.482 160.904 275.222 160.633C274.961 160.357 274.591 160.219 274.112 160.219ZM279.722 169.852L278.542 169.234L278.823 168.727C279.172 168.091 279.352 167.458 279.362 166.828V165.078H281.269L281.261 166.641C281.256 167.219 281.11 167.802 280.823 168.391C280.537 168.979 280.17 169.466 279.722 169.852ZM291.604 164.664C291.604 164.388 291.466 164.172 291.19 164.016C290.92 163.854 290.482 163.711 289.878 163.586C287.868 163.164 286.862 162.31 286.862 161.023C286.862 160.273 287.172 159.648 287.792 159.148C288.417 158.643 289.232 158.391 290.237 158.391C291.31 158.391 292.167 158.643 292.808 159.148C293.453 159.654 293.776 160.31 293.776 161.117H291.519C291.519 160.794 291.414 160.529 291.206 160.32C290.998 160.107 290.672 160 290.229 160C289.849 160 289.555 160.086 289.347 160.258C289.138 160.43 289.034 160.648 289.034 160.914C289.034 161.164 289.151 161.367 289.386 161.523C289.625 161.674 290.026 161.807 290.589 161.922C291.151 162.031 291.625 162.156 292.011 162.297C293.203 162.734 293.8 163.492 293.8 164.57C293.8 165.341 293.469 165.966 292.808 166.445C292.146 166.919 291.292 167.156 290.245 167.156C289.537 167.156 288.907 167.031 288.354 166.781C287.808 166.526 287.378 166.18 287.065 165.742C286.753 165.299 286.597 164.823 286.597 164.312H288.737C288.758 164.714 288.907 165.021 289.183 165.234C289.459 165.448 289.828 165.555 290.292 165.555C290.724 165.555 291.05 165.474 291.269 165.312C291.493 165.146 291.604 164.93 291.604 164.664ZM294.909 162.695C294.909 161.857 295.071 161.109 295.394 160.453C295.716 159.797 296.18 159.289 296.784 158.93C297.394 158.57 298.099 158.391 298.901 158.391C300.042 158.391 300.972 158.74 301.69 159.438C302.414 160.135 302.818 161.083 302.901 162.281L302.917 162.859C302.917 164.156 302.555 165.198 301.831 165.984C301.107 166.766 300.136 167.156 298.917 167.156C297.698 167.156 296.724 166.766 295.995 165.984C295.271 165.203 294.909 164.141 294.909 162.797V162.695ZM297.167 162.859C297.167 163.661 297.318 164.276 297.62 164.703C297.922 165.125 298.354 165.336 298.917 165.336C299.464 165.336 299.891 165.128 300.198 164.711C300.506 164.289 300.659 163.617 300.659 162.695C300.659 161.909 300.506 161.299 300.198 160.867C299.891 160.435 299.459 160.219 298.901 160.219C298.349 160.219 297.922 160.435 297.62 160.867C297.318 161.294 297.167 161.958 297.167 162.859ZM306.425 158.547L306.495 159.492C307.094 158.758 307.904 158.391 308.925 158.391C310.013 158.391 310.761 158.82 311.167 159.68C311.761 158.82 312.607 158.391 313.706 158.391C314.623 158.391 315.305 158.659 315.753 159.195C316.201 159.727 316.425 160.529 316.425 161.602V167H314.159V161.609C314.159 161.13 314.065 160.781 313.878 160.562C313.69 160.339 313.36 160.227 312.886 160.227C312.209 160.227 311.74 160.549 311.479 161.195L311.487 167H309.229V161.617C309.229 161.128 309.133 160.773 308.94 160.555C308.748 160.336 308.42 160.227 307.956 160.227C307.315 160.227 306.852 160.492 306.565 161.023V167H304.308V158.547H306.425ZM317.815 162.695C317.815 161.857 317.977 161.109 318.3 160.453C318.623 159.797 319.086 159.289 319.69 158.93C320.3 158.57 321.006 158.391 321.808 158.391C322.948 158.391 323.878 158.74 324.597 159.438C325.321 160.135 325.724 161.083 325.808 162.281L325.823 162.859C325.823 164.156 325.461 165.198 324.737 165.984C324.013 166.766 323.042 167.156 321.823 167.156C320.604 167.156 319.631 166.766 318.901 165.984C318.177 165.203 317.815 164.141 317.815 162.797V162.695ZM320.073 162.859C320.073 163.661 320.224 164.276 320.526 164.703C320.828 165.125 321.261 165.336 321.823 165.336C322.37 165.336 322.797 165.128 323.104 164.711C323.412 164.289 323.565 163.617 323.565 162.695C323.565 161.909 323.412 161.299 323.104 160.867C322.797 160.435 322.365 160.219 321.808 160.219C321.256 160.219 320.828 160.435 320.526 160.867C320.224 161.294 320.073 161.958 320.073 162.859ZM331.792 164.664C331.792 164.388 331.654 164.172 331.378 164.016C331.107 163.854 330.67 163.711 330.065 163.586C328.055 163.164 327.05 162.31 327.05 161.023C327.05 160.273 327.36 159.648 327.979 159.148C328.604 158.643 329.42 158.391 330.425 158.391C331.498 158.391 332.354 158.643 332.995 159.148C333.641 159.654 333.964 160.31 333.964 161.117H331.706C331.706 160.794 331.602 160.529 331.394 160.32C331.185 160.107 330.86 160 330.417 160C330.037 160 329.743 160.086 329.534 160.258C329.326 160.43 329.222 160.648 329.222 160.914C329.222 161.164 329.339 161.367 329.573 161.523C329.813 161.674 330.214 161.807 330.776 161.922C331.339 162.031 331.813 162.156 332.198 162.297C333.391 162.734 333.987 163.492 333.987 164.57C333.987 165.341 333.657 165.966 332.995 166.445C332.334 166.919 331.479 167.156 330.433 167.156C329.724 167.156 329.094 167.031 328.542 166.781C327.995 166.526 327.565 166.18 327.253 165.742C326.94 165.299 326.784 164.823 326.784 164.312H328.925C328.946 164.714 329.094 165.021 329.37 165.234C329.646 165.448 330.016 165.555 330.479 165.555C330.912 165.555 331.237 165.474 331.456 165.312C331.68 165.146 331.792 164.93 331.792 164.664ZM342.948 165.336C343.365 165.336 343.703 165.221 343.964 164.992C344.224 164.763 344.36 164.458 344.37 164.078H346.487C346.482 164.651 346.326 165.177 346.019 165.656C345.711 166.13 345.289 166.5 344.753 166.766C344.222 167.026 343.633 167.156 342.987 167.156C341.779 167.156 340.826 166.773 340.128 166.008C339.43 165.237 339.081 164.174 339.081 162.82V162.672C339.081 161.37 339.427 160.331 340.12 159.555C340.813 158.779 341.763 158.391 342.972 158.391C344.029 158.391 344.875 158.693 345.511 159.297C346.151 159.896 346.477 160.695 346.487 161.695H344.37C344.36 161.258 344.224 160.904 343.964 160.633C343.703 160.357 343.36 160.219 342.933 160.219C342.407 160.219 342.008 160.411 341.737 160.797C341.472 161.177 341.339 161.797 341.339 162.656V162.891C341.339 163.76 341.472 164.385 341.737 164.766C342.003 165.146 342.407 165.336 342.948 165.336ZM347.425 162.695C347.425 161.857 347.586 161.109 347.909 160.453C348.232 159.797 348.696 159.289 349.3 158.93C349.909 158.57 350.615 158.391 351.417 158.391C352.558 158.391 353.487 158.74 354.206 159.438C354.93 160.135 355.334 161.083 355.417 162.281L355.433 162.859C355.433 164.156 355.071 165.198 354.347 165.984C353.623 166.766 352.651 167.156 351.433 167.156C350.214 167.156 349.24 166.766 348.511 165.984C347.787 165.203 347.425 164.141 347.425 162.797V162.695ZM349.683 162.859C349.683 163.661 349.834 164.276 350.136 164.703C350.438 165.125 350.87 165.336 351.433 165.336C351.979 165.336 352.407 165.128 352.714 164.711C353.021 164.289 353.175 163.617 353.175 162.695C353.175 161.909 353.021 161.299 352.714 160.867C352.407 160.435 351.974 160.219 351.417 160.219C350.865 160.219 350.438 160.435 350.136 160.867C349.834 161.294 349.683 161.958 349.683 162.859ZM358.901 158.547L358.972 159.523C359.576 158.768 360.386 158.391 361.401 158.391C362.297 158.391 362.964 158.654 363.401 159.18C363.839 159.706 364.063 160.492 364.073 161.539V167H361.815V161.594C361.815 161.115 361.711 160.768 361.503 160.555C361.295 160.336 360.948 160.227 360.464 160.227C359.828 160.227 359.352 160.497 359.034 161.039V167H356.776V158.547H358.901ZM368.495 156.469V158.547H369.94V160.203H368.495V164.422C368.495 164.734 368.555 164.958 368.675 165.094C368.795 165.229 369.024 165.297 369.362 165.297C369.612 165.297 369.834 165.279 370.026 165.242V166.953C369.584 167.089 369.128 167.156 368.659 167.156C367.076 167.156 366.269 166.357 366.237 164.758V160.203H365.003V158.547H366.237V156.469H368.495ZM375.948 160.664C375.641 160.622 375.37 160.602 375.136 160.602C374.282 160.602 373.722 160.891 373.456 161.469V167H371.198V158.547H373.331L373.394 159.555C373.847 158.779 374.474 158.391 375.276 158.391C375.526 158.391 375.761 158.424 375.979 158.492L375.948 160.664ZM381.706 167C381.602 166.797 381.526 166.544 381.479 166.242C380.933 166.852 380.222 167.156 379.347 167.156C378.519 167.156 377.831 166.917 377.284 166.438C376.743 165.958 376.472 165.354 376.472 164.625C376.472 163.729 376.802 163.042 377.464 162.562C378.131 162.083 379.091 161.841 380.347 161.836H381.386V161.352C381.386 160.961 381.284 160.648 381.081 160.414C380.883 160.18 380.568 160.062 380.136 160.062C379.756 160.062 379.456 160.154 379.237 160.336C379.024 160.518 378.917 160.768 378.917 161.086H376.659C376.659 160.596 376.81 160.143 377.112 159.727C377.414 159.31 377.841 158.984 378.394 158.75C378.946 158.51 379.565 158.391 380.253 158.391C381.295 158.391 382.12 158.654 382.729 159.18C383.344 159.701 383.651 160.435 383.651 161.383V165.047C383.657 165.849 383.769 166.456 383.987 166.867V167H381.706ZM379.839 165.43C380.172 165.43 380.479 165.357 380.761 165.211C381.042 165.06 381.25 164.859 381.386 164.609V163.156H380.542C379.412 163.156 378.81 163.547 378.737 164.328L378.729 164.461C378.729 164.742 378.828 164.974 379.026 165.156C379.224 165.339 379.495 165.43 379.839 165.43ZM394.269 167C394.164 166.797 394.089 166.544 394.042 166.242C393.495 166.852 392.784 167.156 391.909 167.156C391.081 167.156 390.394 166.917 389.847 166.438C389.305 165.958 389.034 165.354 389.034 164.625C389.034 163.729 389.365 163.042 390.026 162.562C390.693 162.083 391.654 161.841 392.909 161.836H393.948V161.352C393.948 160.961 393.847 160.648 393.644 160.414C393.446 160.18 393.131 160.062 392.698 160.062C392.318 160.062 392.019 160.154 391.8 160.336C391.586 160.518 391.479 160.768 391.479 161.086H389.222C389.222 160.596 389.373 160.143 389.675 159.727C389.977 159.31 390.404 158.984 390.956 158.75C391.508 158.51 392.128 158.391 392.815 158.391C393.857 158.391 394.683 158.654 395.292 159.18C395.907 159.701 396.214 160.435 396.214 161.383V165.047C396.219 165.849 396.331 166.456 396.55 166.867V167H394.269ZM392.401 165.43C392.735 165.43 393.042 165.357 393.323 165.211C393.604 165.06 393.813 164.859 393.948 164.609V163.156H393.104C391.974 163.156 391.373 163.547 391.3 164.328L391.292 164.461C391.292 164.742 391.391 164.974 391.589 165.156C391.787 165.339 392.058 165.43 392.401 165.43ZM409.55 162.852C409.55 164.206 409.261 165.263 408.683 166.023C408.104 166.779 407.297 167.156 406.261 167.156C405.344 167.156 404.612 166.805 404.065 166.102L403.964 167H401.933V155H404.19V159.305C404.711 158.695 405.396 158.391 406.245 158.391C407.276 158.391 408.084 158.771 408.667 159.531C409.256 160.286 409.55 161.352 409.55 162.727V162.852ZM407.292 162.688C407.292 161.833 407.157 161.211 406.886 160.82C406.615 160.424 406.211 160.227 405.675 160.227C404.956 160.227 404.461 160.521 404.19 161.109V164.445C404.466 165.039 404.966 165.336 405.69 165.336C406.42 165.336 406.899 164.977 407.128 164.258C407.237 163.914 407.292 163.391 407.292 162.688ZM416.011 166.141C415.453 166.818 414.683 167.156 413.698 167.156C412.792 167.156 412.099 166.896 411.62 166.375C411.146 165.854 410.904 165.091 410.894 164.086V158.547H413.151V164.008C413.151 164.888 413.552 165.328 414.354 165.328C415.12 165.328 415.646 165.062 415.933 164.531V158.547H418.198V167H416.073L416.011 166.141ZM424.651 160.664C424.344 160.622 424.073 160.602 423.839 160.602C422.985 160.602 422.425 160.891 422.159 161.469V167H419.901V158.547H422.034L422.097 159.555C422.55 158.779 423.177 158.391 423.979 158.391C424.229 158.391 424.464 158.424 424.683 158.492L424.651 160.664ZM425.112 162.695C425.112 161.857 425.274 161.109 425.597 160.453C425.92 159.797 426.383 159.289 426.987 158.93C427.597 158.57 428.302 158.391 429.104 158.391C430.245 158.391 431.175 158.74 431.894 159.438C432.618 160.135 433.021 161.083 433.104 162.281L433.12 162.859C433.12 164.156 432.758 165.198 432.034 165.984C431.31 166.766 430.339 167.156 429.12 167.156C427.901 167.156 426.927 166.766 426.198 165.984C425.474 165.203 425.112 164.141 425.112 162.797V162.695ZM427.37 162.859C427.37 163.661 427.521 164.276 427.823 164.703C428.125 165.125 428.558 165.336 429.12 165.336C429.667 165.336 430.094 165.128 430.401 164.711C430.709 164.289 430.862 163.617 430.862 162.695C430.862 161.909 430.709 161.299 430.401 160.867C430.094 160.435 429.662 160.219 429.104 160.219C428.552 160.219 428.125 160.435 427.823 160.867C427.521 161.294 427.37 161.958 427.37 162.859ZM438.026 165.336C438.443 165.336 438.782 165.221 439.042 164.992C439.302 164.763 439.438 164.458 439.448 164.078H441.565C441.56 164.651 441.404 165.177 441.097 165.656C440.789 166.13 440.368 166.5 439.831 166.766C439.3 167.026 438.711 167.156 438.065 167.156C436.857 167.156 435.904 166.773 435.206 166.008C434.508 165.237 434.159 164.174 434.159 162.82V162.672C434.159 161.37 434.506 160.331 435.198 159.555C435.891 158.779 436.841 158.391 438.05 158.391C439.107 158.391 439.953 158.693 440.589 159.297C441.229 159.896 441.555 160.695 441.565 161.695H439.448C439.438 161.258 439.302 160.904 439.042 160.633C438.782 160.357 438.438 160.219 438.011 160.219C437.485 160.219 437.086 160.411 436.815 160.797C436.55 161.177 436.417 161.797 436.417 162.656V162.891C436.417 163.76 436.55 164.385 436.815 164.766C437.081 165.146 437.485 165.336 438.026 165.336ZM447.604 160.664C447.297 160.622 447.026 160.602 446.792 160.602C445.938 160.602 445.378 160.891 445.112 161.469V167H442.854V158.547H444.987L445.05 159.555C445.503 158.779 446.131 158.391 446.933 158.391C447.183 158.391 447.417 158.424 447.636 158.492L447.604 160.664ZM453.362 167C453.258 166.797 453.183 166.544 453.136 166.242C452.589 166.852 451.878 167.156 451.003 167.156C450.175 167.156 449.487 166.917 448.94 166.438C448.399 165.958 448.128 165.354 448.128 164.625C448.128 163.729 448.459 163.042 449.12 162.562C449.787 162.083 450.748 161.841 452.003 161.836H453.042V161.352C453.042 160.961 452.94 160.648 452.737 160.414C452.539 160.18 452.224 160.062 451.792 160.062C451.412 160.062 451.112 160.154 450.894 160.336C450.68 160.518 450.573 160.768 450.573 161.086H448.315C448.315 160.596 448.466 160.143 448.769 159.727C449.071 159.31 449.498 158.984 450.05 158.75C450.602 158.51 451.222 158.391 451.909 158.391C452.951 158.391 453.776 158.654 454.386 159.18C455 159.701 455.308 160.435 455.308 161.383V165.047C455.313 165.849 455.425 166.456 455.644 166.867V167H453.362ZM451.495 165.43C451.828 165.43 452.136 165.357 452.417 165.211C452.698 165.06 452.907 164.859 453.042 164.609V163.156H452.198C451.068 163.156 450.466 163.547 450.394 164.328L450.386 164.461C450.386 164.742 450.485 164.974 450.683 165.156C450.881 165.339 451.151 165.43 451.495 165.43ZM460.558 165.336C460.974 165.336 461.313 165.221 461.573 164.992C461.834 164.763 461.969 164.458 461.979 164.078H464.097C464.091 164.651 463.935 165.177 463.628 165.656C463.321 166.13 462.899 166.5 462.362 166.766C461.831 167.026 461.243 167.156 460.597 167.156C459.388 167.156 458.435 166.773 457.737 166.008C457.039 165.237 456.69 164.174 456.69 162.82V162.672C456.69 161.37 457.037 160.331 457.729 159.555C458.422 158.779 459.373 158.391 460.581 158.391C461.638 158.391 462.485 158.693 463.12 159.297C463.761 159.896 464.086 160.695 464.097 161.695H461.979C461.969 161.258 461.834 160.904 461.573 160.633C461.313 160.357 460.969 160.219 460.542 160.219C460.016 160.219 459.618 160.411 459.347 160.797C459.081 161.177 458.948 161.797 458.948 162.656V162.891C458.948 163.76 459.081 164.385 459.347 164.766C459.612 165.146 460.016 165.336 460.558 165.336ZM467.769 167H465.503V158.547H467.769V167ZM465.37 156.359C465.37 156.021 465.482 155.742 465.706 155.523C465.935 155.305 466.245 155.195 466.636 155.195C467.021 155.195 467.328 155.305 467.558 155.523C467.787 155.742 467.901 156.021 467.901 156.359C467.901 156.703 467.784 156.984 467.55 157.203C467.321 157.422 467.016 157.531 466.636 157.531C466.256 157.531 465.948 157.422 465.714 157.203C465.485 156.984 465.37 156.703 465.37 156.359ZM474.534 167C474.43 166.797 474.354 166.544 474.308 166.242C473.761 166.852 473.05 167.156 472.175 167.156C471.347 167.156 470.659 166.917 470.112 166.438C469.571 165.958 469.3 165.354 469.3 164.625C469.3 163.729 469.631 163.042 470.292 162.562C470.959 162.083 471.92 161.841 473.175 161.836H474.214V161.352C474.214 160.961 474.112 160.648 473.909 160.414C473.711 160.18 473.396 160.062 472.964 160.062C472.584 160.062 472.284 160.154 472.065 160.336C471.852 160.518 471.745 160.768 471.745 161.086H469.487C469.487 160.596 469.638 160.143 469.94 159.727C470.243 159.31 470.67 158.984 471.222 158.75C471.774 158.51 472.394 158.391 473.081 158.391C474.123 158.391 474.948 158.654 475.558 159.18C476.172 159.701 476.479 160.435 476.479 161.383V165.047C476.485 165.849 476.597 166.456 476.815 166.867V167H474.534ZM472.667 165.43C473 165.43 473.308 165.357 473.589 165.211C473.87 165.06 474.078 164.859 474.214 164.609V163.156H473.37C472.24 163.156 471.638 163.547 471.565 164.328L471.558 164.461C471.558 164.742 471.657 164.974 471.854 165.156C472.052 165.339 472.323 165.43 472.667 165.43Z" fill="#FEF5F5"/>
<path d="M31.4375 40.4062H13.4375V59H4.0625V13.5H33.6875V21.0938H13.4375V32.8438H31.4375V40.4062ZM57.0625 59C56.6458 58.1875 56.3438 57.1771 56.1562 55.9688C53.9688 58.4062 51.125 59.625 47.625 59.625C44.3125 59.625 41.5625 58.6667 39.375 56.75C37.2083 54.8333 36.125 52.4167 36.125 49.5C36.125 45.9167 37.4479 43.1667 40.0938 41.25C42.7604 39.3333 46.6042 38.3646 51.625 38.3438H55.7812V36.4062C55.7812 34.8438 55.375 33.5938 54.5625 32.6562C53.7708 31.7188 52.5104 31.25 50.7812 31.25C49.2604 31.25 48.0625 31.6146 47.1875 32.3438C46.3333 33.0729 45.9062 34.0729 45.9062 35.3438H36.875C36.875 33.3854 37.4792 31.5729 38.6875 29.9062C39.8958 28.2396 41.6042 26.9375 43.8125 26C46.0208 25.0417 48.5 24.5625 51.25 24.5625C55.4167 24.5625 58.7188 25.6146 61.1562 27.7188C63.6146 29.8021 64.8438 32.7396 64.8438 36.5312V51.1875C64.8646 54.3958 65.3125 56.8229 66.1875 58.4688V59H57.0625ZM49.5938 52.7188C50.9271 52.7188 52.1562 52.4271 53.2812 51.8438C54.4062 51.2396 55.2396 50.4375 55.7812 49.4375V43.625H52.4062C47.8854 43.625 45.4792 45.1875 45.1875 48.3125L45.1562 48.8438C45.1562 49.9688 45.5521 50.8958 46.3438 51.625C47.1354 52.3542 48.2188 52.7188 49.5938 52.7188ZM85.8438 52.3438C87.5104 52.3438 88.8646 51.8854 89.9062 50.9688C90.9479 50.0521 91.4896 48.8333 91.5312 47.3125H100C99.9792 49.6042 99.3542 51.7083 98.125 53.625C96.8958 55.5208 95.2083 57 93.0625 58.0625C90.9375 59.1042 88.5833 59.625 86 59.625C81.1667 59.625 77.3542 58.0938 74.5625 55.0312C71.7708 51.9479 70.375 47.6979 70.375 42.2812V41.6875C70.375 36.4792 71.7604 32.3229 74.5312 29.2188C77.3021 26.1146 81.1042 24.5625 85.9375 24.5625C90.1667 24.5625 93.5521 25.7708 96.0938 28.1875C98.6562 30.5833 99.9583 33.7812 100 37.7812H91.5312C91.4896 36.0312 90.9479 34.6146 89.9062 33.5312C88.8646 32.4271 87.4896 31.875 85.7812 31.875C83.6771 31.875 82.0833 32.6458 81 34.1875C79.9375 35.7083 79.4062 38.1875 79.4062 41.625V42.5625C79.4062 46.0417 79.9375 48.5417 81 50.0625C82.0625 51.5833 83.6771 52.3438 85.8438 52.3438ZM89.125 58.8125L88.7812 60.625C91.9062 61.1875 93.4688 62.9896 93.4688 66.0312C93.4688 68.3229 92.5104 70.1354 90.5938 71.4688C88.6979 72.8021 86.0208 73.4688 82.5625 73.4688L82.3438 68.25C84.6771 68.25 85.8438 67.4062 85.8438 65.7188C85.8438 64.8438 85.4896 64.2396 84.7812 63.9062C84.0938 63.5938 82.9688 63.3854 81.4062 63.2812L82.375 58.8125H89.125ZM124.75 59C124.333 58.1875 124.031 57.1771 123.844 55.9688C121.656 58.4062 118.812 59.625 115.312 59.625C112 59.625 109.25 58.6667 107.062 56.75C104.896 54.8333 103.812 52.4167 103.812 49.5C103.812 45.9167 105.135 43.1667 107.781 41.25C110.448 39.3333 114.292 38.3646 119.312 38.3438H123.469V36.4062C123.469 34.8438 123.062 33.5938 122.25 32.6562C121.458 31.7188 120.198 31.25 118.469 31.25C116.948 31.25 115.75 31.6146 114.875 32.3438C114.021 33.0729 113.594 34.0729 113.594 35.3438H104.562C104.562 33.3854 105.167 31.5729 106.375 29.9062C107.583 28.2396 109.292 26.9375 111.5 26C113.708 25.0417 116.188 24.5625 118.938 24.5625C123.104 24.5625 126.406 25.6146 128.844 27.7188C131.302 29.8021 132.531 32.7396 132.531 36.5312V51.1875C132.552 54.3958 133 56.8229 133.875 58.4688V59H124.75ZM117.281 52.7188C118.615 52.7188 119.844 52.4271 120.969 51.8438C122.094 51.2396 122.927 50.4375 123.469 49.4375V43.625H120.094C115.573 43.625 113.167 45.1875 112.875 48.3125L112.844 48.8438C112.844 49.9688 113.24 50.8958 114.031 51.625C114.823 52.3542 115.906 52.7188 117.281 52.7188ZM185.844 42.4062C185.844 47.6146 184.656 51.7917 182.281 54.9375C179.927 58.0625 176.74 59.625 172.719 59.625C169.302 59.625 166.542 58.4375 164.438 56.0625V72H155.406V25.1875H163.781L164.094 28.5C166.281 25.875 169.135 24.5625 172.656 24.5625C176.823 24.5625 180.062 26.1042 182.375 29.1875C184.688 32.2708 185.844 36.5208 185.844 41.9375V42.4062ZM176.812 41.75C176.812 38.6042 176.25 36.1771 175.125 34.4688C174.021 32.7604 172.406 31.9062 170.281 31.9062C167.448 31.9062 165.5 32.9896 164.438 35.1562V49C165.542 51.2292 167.51 52.3438 170.344 52.3438C174.656 52.3438 176.812 48.8125 176.812 41.75ZM211.062 59C210.646 58.1875 210.344 57.1771 210.156 55.9688C207.969 58.4062 205.125 59.625 201.625 59.625C198.312 59.625 195.562 58.6667 193.375 56.75C191.208 54.8333 190.125 52.4167 190.125 49.5C190.125 45.9167 191.448 43.1667 194.094 41.25C196.76 39.3333 200.604 38.3646 205.625 38.3438H209.781V36.4062C209.781 34.8438 209.375 33.5938 208.562 32.6562C207.771 31.7188 206.51 31.25 204.781 31.25C203.26 31.25 202.062 31.6146 201.188 32.3438C200.333 33.0729 199.906 34.0729 199.906 35.3438H190.875C190.875 33.3854 191.479 31.5729 192.688 29.9062C193.896 28.2396 195.604 26.9375 197.812 26C200.021 25.0417 202.5 24.5625 205.25 24.5625C209.417 24.5625 212.719 25.6146 215.156 27.7188C217.615 29.8021 218.844 32.7396 218.844 36.5312V51.1875C218.865 54.3958 219.312 56.8229 220.188 58.4688V59H211.062ZM203.594 52.7188C204.927 52.7188 206.156 52.4271 207.281 51.8438C208.406 51.2396 209.24 50.4375 209.781 49.4375V43.625H206.406C201.885 43.625 199.479 45.1875 199.188 48.3125L199.156 48.8438C199.156 49.9688 199.552 50.8958 200.344 51.625C201.135 52.3542 202.219 52.7188 203.594 52.7188ZM244.781 33.6562C243.552 33.4896 242.469 33.4062 241.531 33.4062C238.115 33.4062 235.875 34.5625 234.812 36.875V59H225.781V25.1875H234.312L234.562 29.2188C236.375 26.1146 238.885 24.5625 242.094 24.5625C243.094 24.5625 244.031 24.6979 244.906 24.9688L244.781 33.6562ZM261.531 16.875V25.1875H267.312V31.8125H261.531V48.6875C261.531 49.9375 261.771 50.8333 262.25 51.375C262.729 51.9167 263.646 52.1875 265 52.1875C266 52.1875 266.885 52.1146 267.656 51.9688V58.8125C265.885 59.3542 264.062 59.625 262.188 59.625C255.854 59.625 252.625 56.4271 252.5 50.0312V31.8125H247.562V25.1875H252.5V16.875H261.531ZM287.906 59.625C282.948 59.625 278.906 58.1042 275.781 55.0625C272.677 52.0208 271.125 47.9688 271.125 42.9062V42.0312C271.125 38.6354 271.781 35.6042 273.094 32.9375C274.406 30.25 276.26 28.1875 278.656 26.75C281.073 25.2917 283.823 24.5625 286.906 24.5625C291.531 24.5625 295.167 26.0208 297.812 28.9375C300.479 31.8542 301.812 35.9896 301.812 41.3438V45.0312H280.281C280.573 47.2396 281.448 49.0104 282.906 50.3438C284.385 51.6771 286.25 52.3438 288.5 52.3438C291.979 52.3438 294.698 51.0833 296.656 48.5625L301.094 53.5312C299.74 55.4479 297.906 56.9479 295.594 58.0312C293.281 59.0938 290.719 59.625 287.906 59.625ZM286.875 31.875C285.083 31.875 283.625 32.4792 282.5 33.6875C281.396 34.8958 280.688 36.625 280.375 38.875H292.938V38.1562C292.896 36.1562 292.354 34.6146 291.312 33.5312C290.271 32.4271 288.792 31.875 286.875 31.875ZM321.5 41.8438C321.5 36.5729 322.677 32.375 325.031 29.25C327.406 26.125 330.646 24.5625 334.75 24.5625C338.042 24.5625 340.76 25.7917 342.906 28.25V11H351.969V59H343.812L343.375 55.4062C341.125 58.2188 338.229 59.625 334.688 59.625C330.708 59.625 327.51 58.0625 325.094 54.9375C322.698 51.7917 321.5 47.4271 321.5 41.8438ZM330.531 42.5C330.531 45.6667 331.083 48.0938 332.188 49.7812C333.292 51.4688 334.896 52.3125 337 52.3125C339.792 52.3125 341.76 51.1354 342.906 48.7812V35.4375C341.781 33.0833 339.833 31.9062 337.062 31.9062C332.708 31.9062 330.531 35.4375 330.531 42.5ZM374.531 59.625C369.573 59.625 365.531 58.1042 362.406 55.0625C359.302 52.0208 357.75 47.9688 357.75 42.9062V42.0312C357.75 38.6354 358.406 35.6042 359.719 32.9375C361.031 30.25 362.885 28.1875 365.281 26.75C367.698 25.2917 370.448 24.5625 373.531 24.5625C378.156 24.5625 381.792 26.0208 384.438 28.9375C387.104 31.8542 388.438 35.9896 388.438 41.3438V45.0312H366.906C367.198 47.2396 368.073 49.0104 369.531 50.3438C371.01 51.6771 372.875 52.3438 375.125 52.3438C378.604 52.3438 381.323 51.0833 383.281 48.5625L387.719 53.5312C386.365 55.4479 384.531 56.9479 382.219 58.0312C379.906 59.0938 377.344 59.625 374.531 59.625ZM373.5 31.875C371.708 31.875 370.25 32.4792 369.125 33.6875C368.021 34.8958 367.312 36.625 367 38.875H379.562V38.1562C379.521 36.1562 378.979 34.6146 377.938 33.5312C376.896 32.4271 375.417 31.875 373.5 31.875ZM411.906 49.6562C411.906 48.5521 411.354 47.6875 410.25 47.0625C409.167 46.4167 407.417 45.8438 405 45.3438C396.958 43.6562 392.938 40.2396 392.938 35.0938C392.938 32.0938 394.177 29.5938 396.656 27.5938C399.156 25.5729 402.417 24.5625 406.438 24.5625C410.729 24.5625 414.156 25.5729 416.719 27.5938C419.302 29.6146 420.594 32.2396 420.594 35.4688H411.562C411.562 34.1771 411.146 33.1146 410.312 32.2812C409.479 31.4271 408.177 31 406.406 31C404.885 31 403.708 31.3438 402.875 32.0312C402.042 32.7188 401.625 33.5938 401.625 34.6562C401.625 35.6562 402.094 36.4688 403.031 37.0938C403.99 37.6979 405.594 38.2292 407.844 38.6875C410.094 39.125 411.99 39.625 413.531 40.1875C418.302 41.9375 420.688 44.9688 420.688 49.2812C420.688 52.3646 419.365 54.8646 416.719 56.7812C414.073 58.6771 410.656 59.625 406.469 59.625C403.635 59.625 401.115 59.125 398.906 58.125C396.719 57.1042 395 55.7188 393.75 53.9688C392.5 52.1979 391.875 50.2917 391.875 48.25H400.438C400.521 49.8542 401.115 51.0833 402.219 51.9375C403.323 52.7917 404.802 53.2188 406.656 53.2188C408.385 53.2188 409.688 52.8958 410.562 52.25C411.458 51.5833 411.906 50.7188 411.906 49.6562ZM444.844 49.6562C444.844 48.5521 444.292 47.6875 443.188 47.0625C442.104 46.4167 440.354 45.8438 437.938 45.3438C429.896 43.6562 425.875 40.2396 425.875 35.0938C425.875 32.0938 427.115 29.5938 429.594 27.5938C432.094 25.5729 435.354 24.5625 439.375 24.5625C443.667 24.5625 447.094 25.5729 449.656 27.5938C452.24 29.6146 453.531 32.2396 453.531 35.4688H444.5C444.5 34.1771 444.083 33.1146 443.25 32.2812C442.417 31.4271 441.115 31 439.344 31C437.823 31 436.646 31.3438 435.812 32.0312C434.979 32.7188 434.562 33.5938 434.562 34.6562C434.562 35.6562 435.031 36.4688 435.969 37.0938C436.927 37.6979 438.531 38.2292 440.781 38.6875C443.031 39.125 444.927 39.625 446.469 40.1875C451.24 41.9375 453.625 44.9688 453.625 49.2812C453.625 52.3646 452.302 54.8646 449.656 56.7812C447.01 58.6771 443.594 59.625 439.406 59.625C436.573 59.625 434.052 59.125 431.844 58.125C429.656 57.1042 427.938 55.7188 426.688 53.9688C425.438 52.1979 424.812 50.2917 424.812 48.25H433.375C433.458 49.8542 434.052 51.0833 435.156 51.9375C436.26 52.7917 437.74 53.2188 439.594 53.2188C441.323 53.2188 442.625 52.8958 443.5 52.25C444.396 51.5833 444.844 50.7188 444.844 49.6562ZM479.062 59C478.646 58.1875 478.344 57.1771 478.156 55.9688C475.969 58.4062 473.125 59.625 469.625 59.625C466.312 59.625 463.562 58.6667 461.375 56.75C459.208 54.8333 458.125 52.4167 458.125 49.5C458.125 45.9167 459.448 43.1667 462.094 41.25C464.76 39.3333 468.604 38.3646 473.625 38.3438H477.781V36.4062C477.781 34.8438 477.375 33.5938 476.562 32.6562C475.771 31.7188 474.51 31.25 472.781 31.25C471.26 31.25 470.062 31.6146 469.188 32.3438C468.333 33.0729 467.906 34.0729 467.906 35.3438H458.875C458.875 33.3854 459.479 31.5729 460.688 29.9062C461.896 28.2396 463.604 26.9375 465.812 26C468.021 25.0417 470.5 24.5625 473.25 24.5625C477.417 24.5625 480.719 25.6146 483.156 27.7188C485.615 29.8021 486.844 32.7396 486.844 36.5312V51.1875C486.865 54.3958 487.312 56.8229 488.188 58.4688V59H479.062ZM471.594 52.7188C472.927 52.7188 474.156 52.4271 475.281 51.8438C476.406 51.2396 477.24 50.4375 477.781 49.4375V43.625H474.406C469.885 43.625 467.479 45.1875 467.188 48.3125L467.156 48.8438C467.156 49.9688 467.552 50.8958 468.344 51.625C469.135 52.3542 470.219 52.7188 471.594 52.7188ZM17.5312 127.344C19.1979 127.344 20.5521 126.885 21.5938 125.969C22.6354 125.052 23.1771 123.833 23.2188 122.312H31.6875C31.6667 124.604 31.0417 126.708 29.8125 128.625C28.5833 130.521 26.8958 132 24.75 133.062C22.625 134.104 20.2708 134.625 17.6875 134.625C12.8542 134.625 9.04167 133.094 6.25 130.031C3.45833 126.948 2.0625 122.698 2.0625 117.281V116.688C2.0625 111.479 3.44792 107.323 6.21875 104.219C8.98958 101.115 12.7917 99.5625 17.625 99.5625C21.8542 99.5625 25.2396 100.771 27.7812 103.188C30.3438 105.583 31.6458 108.781 31.6875 112.781H23.2188C23.1771 111.031 22.6354 109.615 21.5938 108.531C20.5521 107.427 19.1771 106.875 17.4688 106.875C15.3646 106.875 13.7708 107.646 12.6875 109.188C11.625 110.708 11.0938 113.188 11.0938 116.625V117.562C11.0938 121.042 11.625 123.542 12.6875 125.062C13.75 126.583 15.3646 127.344 17.5312 127.344ZM35.4375 116.781C35.4375 113.427 36.0833 110.438 37.375 107.812C38.6667 105.188 40.5208 103.156 42.9375 101.719C45.375 100.281 48.1979 99.5625 51.4062 99.5625C55.9688 99.5625 59.6875 100.958 62.5625 103.75C65.4583 106.542 67.0729 110.333 67.4062 115.125L67.4688 117.438C67.4688 122.625 66.0208 126.792 63.125 129.938C60.2292 133.062 56.3438 134.625 51.4688 134.625C46.5938 134.625 42.6979 133.062 39.7812 129.938C36.8854 126.812 35.4375 122.562 35.4375 117.188V116.781ZM44.4688 117.438C44.4688 120.646 45.0729 123.104 46.2812 124.812C47.4896 126.5 49.2188 127.344 51.4688 127.344C53.6562 127.344 55.3646 126.51 56.5938 124.844C57.8229 123.156 58.4375 120.469 58.4375 116.781C58.4375 113.635 57.8229 111.198 56.5938 109.469C55.3646 107.74 53.6354 106.875 51.4062 106.875C49.1979 106.875 47.4896 107.74 46.2812 109.469C45.0729 111.177 44.4688 113.833 44.4688 117.438ZM81.5 100.188L81.7812 103.969C84.1771 101.031 87.4167 99.5625 91.5 99.5625C95.8542 99.5625 98.8438 101.281 100.469 104.719C102.844 101.281 106.229 99.5625 110.625 99.5625C114.292 99.5625 117.021 100.635 118.812 102.781C120.604 104.906 121.5 108.115 121.5 112.406V134H112.438V112.438C112.438 110.521 112.062 109.125 111.312 108.25C110.562 107.354 109.24 106.906 107.344 106.906C104.635 106.906 102.76 108.198 101.719 110.781L101.75 134H92.7188V112.469C92.7188 110.51 92.3333 109.094 91.5625 108.219C90.7917 107.344 89.4792 106.906 87.625 106.906C85.0625 106.906 83.2083 107.969 82.0625 110.094V134H73.0312V100.188H81.5ZM148.719 130.562C146.49 133.271 143.406 134.625 139.469 134.625C135.844 134.625 133.073 133.583 131.156 131.5C129.26 129.417 128.292 126.365 128.25 122.344V100.188H137.281V122.031C137.281 125.552 138.885 127.312 142.094 127.312C145.156 127.312 147.26 126.25 148.406 124.125V100.188H157.469V134H148.969L148.719 130.562ZM172.594 100.188L172.875 104.094C175.292 101.073 178.531 99.5625 182.594 99.5625C186.177 99.5625 188.844 100.615 190.594 102.719C192.344 104.823 193.24 107.969 193.281 112.156V134H184.25V112.375C184.25 110.458 183.833 109.073 183 108.219C182.167 107.344 180.781 106.906 178.844 106.906C176.302 106.906 174.396 107.99 173.125 110.156V134H164.094V100.188H172.594ZM209.688 134H200.625V100.188H209.688V134ZM200.094 91.4375C200.094 90.0833 200.542 88.9688 201.438 88.0938C202.354 87.2188 203.594 86.7812 205.156 86.7812C206.698 86.7812 207.927 87.2188 208.844 88.0938C209.76 88.9688 210.219 90.0833 210.219 91.4375C210.219 92.8125 209.75 93.9375 208.812 94.8125C207.896 95.6875 206.677 96.125 205.156 96.125C203.635 96.125 202.406 95.6875 201.469 94.8125C200.552 93.9375 200.094 92.8125 200.094 91.4375ZM215.75 116.844C215.75 111.573 216.927 107.375 219.281 104.25C221.656 101.125 224.896 99.5625 229 99.5625C232.292 99.5625 235.01 100.792 237.156 103.25V86H246.219V134H238.062L237.625 130.406C235.375 133.219 232.479 134.625 228.938 134.625C224.958 134.625 221.76 133.062 219.344 129.938C216.948 126.792 215.75 122.427 215.75 116.844ZM224.781 117.5C224.781 120.667 225.333 123.094 226.438 124.781C227.542 126.469 229.146 127.312 231.25 127.312C234.042 127.312 236.01 126.135 237.156 123.781V110.438C236.031 108.083 234.083 106.906 231.312 106.906C226.958 106.906 224.781 110.438 224.781 117.5ZM272.812 134C272.396 133.188 272.094 132.177 271.906 130.969C269.719 133.406 266.875 134.625 263.375 134.625C260.062 134.625 257.312 133.667 255.125 131.75C252.958 129.833 251.875 127.417 251.875 124.5C251.875 120.917 253.198 118.167 255.844 116.25C258.51 114.333 262.354 113.365 267.375 113.344H271.531V111.406C271.531 109.844 271.125 108.594 270.312 107.656C269.521 106.719 268.26 106.25 266.531 106.25C265.01 106.25 263.812 106.615 262.938 107.344C262.083 108.073 261.656 109.073 261.656 110.344H252.625C252.625 108.385 253.229 106.573 254.438 104.906C255.646 103.24 257.354 101.938 259.562 101C261.771 100.042 264.25 99.5625 267 99.5625C271.167 99.5625 274.469 100.615 276.906 102.719C279.365 104.802 280.594 107.74 280.594 111.531V126.188C280.615 129.396 281.062 131.823 281.938 133.469V134H272.812ZM265.344 127.719C266.677 127.719 267.906 127.427 269.031 126.844C270.156 126.24 270.99 125.438 271.531 124.438V118.625H268.156C263.635 118.625 261.229 120.188 260.938 123.312L260.906 123.844C260.906 124.969 261.302 125.896 262.094 126.625C262.885 127.354 263.969 127.719 265.344 127.719ZM286.125 116.844C286.125 111.573 287.302 107.375 289.656 104.25C292.031 101.125 295.271 99.5625 299.375 99.5625C302.667 99.5625 305.385 100.792 307.531 103.25V86H316.594V134H308.438L308 130.406C305.75 133.219 302.854 134.625 299.312 134.625C295.333 134.625 292.135 133.062 289.719 129.938C287.323 126.792 286.125 122.427 286.125 116.844ZM295.156 117.5C295.156 120.667 295.708 123.094 296.812 124.781C297.917 126.469 299.521 127.312 301.625 127.312C304.417 127.312 306.385 126.135 307.531 123.781V110.438C306.406 108.083 304.458 106.906 301.688 106.906C297.333 106.906 295.156 110.438 295.156 117.5ZM339.156 134.625C334.198 134.625 330.156 133.104 327.031 130.062C323.927 127.021 322.375 122.969 322.375 117.906V117.031C322.375 113.635 323.031 110.604 324.344 107.938C325.656 105.25 327.51 103.188 329.906 101.75C332.323 100.292 335.073 99.5625 338.156 99.5625C342.781 99.5625 346.417 101.021 349.062 103.938C351.729 106.854 353.062 110.99 353.062 116.344V120.031H331.531C331.823 122.24 332.698 124.01 334.156 125.344C335.635 126.677 337.5 127.344 339.75 127.344C343.229 127.344 345.948 126.083 347.906 123.562L352.344 128.531C350.99 130.448 349.156 131.948 346.844 133.031C344.531 134.094 341.969 134.625 339.156 134.625ZM338.125 106.875C336.333 106.875 334.875 107.479 333.75 108.688C332.646 109.896 331.938 111.625 331.625 113.875H344.188V113.156C344.146 111.156 343.604 109.615 342.562 108.531C341.521 107.427 340.042 106.875 338.125 106.875ZM358.688 129.562C358.688 128.125 359.167 126.958 360.125 126.062C361.104 125.167 362.323 124.719 363.781 124.719C365.26 124.719 366.479 125.167 367.438 126.062C368.417 126.958 368.906 128.125 368.906 129.562C368.906 130.979 368.427 132.135 367.469 133.031C366.51 133.906 365.281 134.344 363.781 134.344C362.302 134.344 361.083 133.906 360.125 133.031C359.167 132.135 358.688 130.979 358.688 129.562Z" fill="#FEF5F5"/>
</svg>
