<svg width="798" height="100" viewBox="0 0 798 100" fill="none" xmlns="http://www.w3.org/2000/svg">
<path d="M441.266 90H438.922L434.359 82.5156V90H432.016V78.625H434.359L438.93 86.125V78.625H441.266V90ZM448.062 90C447.958 89.7969 447.883 89.5443 447.836 89.2422C447.289 89.8516 446.578 90.1562 445.703 90.1562C444.875 90.1562 444.188 89.9167 443.641 89.4375C443.099 88.9583 442.828 88.3542 442.828 87.625C442.828 86.7292 443.159 86.0417 443.82 85.5625C444.487 85.0833 445.448 84.8411 446.703 84.8359H447.742V84.3516C447.742 83.9609 447.641 83.6484 447.438 83.4141C447.24 83.1797 446.924 83.0625 446.492 83.0625C446.112 83.0625 445.812 83.1536 445.594 83.3359C445.38 83.5182 445.273 83.7682 445.273 84.0859H443.016C443.016 83.5964 443.167 83.1432 443.469 82.7266C443.771 82.3099 444.198 81.9844 444.75 81.75C445.302 81.5104 445.922 81.3906 446.609 81.3906C447.651 81.3906 448.477 81.6536 449.086 82.1797C449.701 82.7005 450.008 83.4349 450.008 84.3828V88.0469C450.013 88.849 450.125 89.4557 450.344 89.8672V90H448.062ZM446.195 88.4297C446.529 88.4297 446.836 88.3568 447.117 88.2109C447.398 88.0599 447.607 87.8594 447.742 87.6094V86.1562H446.898C445.768 86.1562 445.167 86.5469 445.094 87.3281L445.086 87.4609C445.086 87.7422 445.185 87.974 445.383 88.1562C445.581 88.3385 445.852 88.4297 446.195 88.4297ZM449.539 78.1016C449.539 78.6901 449.367 79.1849 449.023 79.5859C448.68 79.9818 448.26 80.1797 447.766 80.1797C447.568 80.1797 447.391 80.1589 447.234 80.1172C447.083 80.0703 446.872 79.974 446.602 79.8281C446.331 79.6823 446.135 79.5938 446.016 79.5625C445.896 79.526 445.766 79.5078 445.625 79.5078C445.443 79.5078 445.286 79.5729 445.156 79.7031C445.031 79.8333 444.969 80.0182 444.969 80.2578L443.656 80.1797C443.656 79.6016 443.826 79.1094 444.164 78.7031C444.508 78.2969 444.927 78.0938 445.422 78.0938C445.578 78.0938 445.724 78.1146 445.859 78.1562C446 78.1927 446.227 78.2865 446.539 78.4375C446.852 78.5885 447.068 78.6797 447.188 78.7109C447.307 78.7422 447.432 78.7578 447.562 78.7578C447.745 78.7578 447.901 78.6953 448.031 78.5703C448.167 78.4401 448.234 78.2552 448.234 78.0156L449.539 78.1016ZM451.391 85.6953C451.391 84.8568 451.552 84.1094 451.875 83.4531C452.198 82.7969 452.661 82.2891 453.266 81.9297C453.875 81.5703 454.581 81.3906 455.383 81.3906C456.523 81.3906 457.453 81.7396 458.172 82.4375C458.896 83.1354 459.299 84.0833 459.383 85.2812L459.398 85.8594C459.398 87.1562 459.036 88.1979 458.312 88.9844C457.589 89.7656 456.617 90.1562 455.398 90.1562C454.18 90.1562 453.206 89.7656 452.477 88.9844C451.753 88.2031 451.391 87.1406 451.391 85.7969V85.6953ZM453.648 85.8594C453.648 86.6615 453.799 87.276 454.102 87.7031C454.404 88.125 454.836 88.3359 455.398 88.3359C455.945 88.3359 456.372 88.1276 456.68 87.7109C456.987 87.2891 457.141 86.6172 457.141 85.6953C457.141 84.9089 456.987 84.2995 456.68 83.8672C456.372 83.4349 455.94 83.2188 455.383 83.2188C454.831 83.2188 454.404 83.4349 454.102 83.8672C453.799 84.2943 453.648 84.9583 453.648 85.8594ZM472.383 85.8516C472.383 87.1536 472.086 88.1979 471.492 88.9844C470.904 89.7656 470.107 90.1562 469.102 90.1562C468.247 90.1562 467.557 89.8594 467.031 89.2656V93.25H464.773V81.5469H466.867L466.945 82.375C467.492 81.7188 468.206 81.3906 469.086 81.3906C470.128 81.3906 470.938 81.776 471.516 82.5469C472.094 83.3177 472.383 84.3802 472.383 85.7344V85.8516ZM470.125 85.6875C470.125 84.901 469.984 84.2943 469.703 83.8672C469.427 83.4401 469.023 83.2266 468.492 83.2266C467.784 83.2266 467.297 83.4974 467.031 84.0391V87.5C467.307 88.0573 467.799 88.3359 468.508 88.3359C469.586 88.3359 470.125 87.4531 470.125 85.6875ZM477.68 90.1562C476.44 90.1562 475.43 89.776 474.648 89.0156C473.872 88.2552 473.484 87.2422 473.484 85.9766V85.7578C473.484 84.9089 473.648 84.151 473.977 83.4844C474.305 82.8125 474.768 82.2969 475.367 81.9375C475.971 81.5729 476.659 81.3906 477.43 81.3906C478.586 81.3906 479.495 81.7552 480.156 82.4844C480.823 83.2135 481.156 84.2474 481.156 85.5859V86.5078H475.773C475.846 87.0599 476.065 87.5026 476.43 87.8359C476.799 88.1693 477.266 88.3359 477.828 88.3359C478.698 88.3359 479.378 88.0208 479.867 87.3906L480.977 88.6328C480.638 89.112 480.18 89.487 479.602 89.7578C479.023 90.0234 478.383 90.1562 477.68 90.1562ZM477.422 83.2188C476.974 83.2188 476.609 83.3698 476.328 83.6719C476.052 83.974 475.875 84.4062 475.797 84.9688H478.938V84.7891C478.927 84.2891 478.792 83.9036 478.531 83.6328C478.271 83.3568 477.901 83.2188 477.422 83.2188ZM487.195 83.6641C486.888 83.6224 486.617 83.6016 486.383 83.6016C485.529 83.6016 484.969 83.8906 484.703 84.4688V90H482.445V81.5469H484.578L484.641 82.5547C485.094 81.7786 485.721 81.3906 486.523 81.3906C486.773 81.3906 487.008 81.4245 487.227 81.4922L487.195 83.6641ZM491.648 88.3359C492.065 88.3359 492.404 88.2214 492.664 87.9922C492.924 87.763 493.06 87.4583 493.07 87.0781H495.188C495.182 87.651 495.026 88.1771 494.719 88.6562C494.411 89.1302 493.99 89.5 493.453 89.7656C492.922 90.026 492.333 90.1562 491.688 90.1562C490.479 90.1562 489.526 89.7734 488.828 89.0078C488.13 88.237 487.781 87.1745 487.781 85.8203V85.6719C487.781 84.3698 488.128 83.3307 488.82 82.5547C489.513 81.7786 490.464 81.3906 491.672 81.3906C492.729 81.3906 493.576 81.6927 494.211 82.2969C494.852 82.8958 495.177 83.6953 495.188 84.6953H493.07C493.06 84.2578 492.924 83.9036 492.664 83.6328C492.404 83.3568 492.06 83.2188 491.633 83.2188C491.107 83.2188 490.708 83.4115 490.438 83.7969C490.172 84.1771 490.039 84.7969 490.039 85.6562V85.8906C490.039 86.7604 490.172 87.3854 490.438 87.7656C490.703 88.1458 491.107 88.3359 491.648 88.3359ZM501.375 90C501.271 89.7969 501.195 89.5443 501.148 89.2422C500.602 89.8516 499.891 90.1562 499.016 90.1562C498.188 90.1562 497.5 89.9167 496.953 89.4375C496.411 88.9583 496.141 88.3542 496.141 87.625C496.141 86.7292 496.471 86.0417 497.133 85.5625C497.799 85.0833 498.76 84.8411 500.016 84.8359H501.055V84.3516C501.055 83.9609 500.953 83.6484 500.75 83.4141C500.552 83.1797 500.237 83.0625 499.805 83.0625C499.424 83.0625 499.125 83.1536 498.906 83.3359C498.693 83.5182 498.586 83.7682 498.586 84.0859H496.328C496.328 83.5964 496.479 83.1432 496.781 82.7266C497.083 82.3099 497.51 81.9844 498.062 81.75C498.615 81.5104 499.234 81.3906 499.922 81.3906C500.964 81.3906 501.789 81.6536 502.398 82.1797C503.013 82.7005 503.32 83.4349 503.32 84.3828V88.0469C503.326 88.849 503.438 89.4557 503.656 89.8672V90H501.375ZM499.508 88.4297C499.841 88.4297 500.148 88.3568 500.43 88.2109C500.711 88.0599 500.919 87.8594 501.055 87.6094V86.1562H500.211C499.081 86.1562 498.479 86.5469 498.406 87.3281L498.398 87.4609C498.398 87.7422 498.497 87.974 498.695 88.1562C498.893 88.3385 499.164 88.4297 499.508 88.4297ZM511.742 79.4688V81.5469H513.188V83.2031H511.742V87.4219C511.742 87.7344 511.802 87.9583 511.922 88.0938C512.042 88.2292 512.271 88.2969 512.609 88.2969C512.859 88.2969 513.081 88.2786 513.273 88.2422V89.9531C512.831 90.0885 512.375 90.1562 511.906 90.1562C510.323 90.1562 509.516 89.3568 509.484 87.7578V83.2031H508.25V81.5469H509.484V79.4688H511.742ZM518.336 90.1562C517.096 90.1562 516.086 89.776 515.305 89.0156C514.529 88.2552 514.141 87.2422 514.141 85.9766V85.7578C514.141 84.9089 514.305 84.151 514.633 83.4844C514.961 82.8125 515.424 82.2969 516.023 81.9375C516.628 81.5729 517.315 81.3906 518.086 81.3906C519.242 81.3906 520.151 81.7552 520.812 82.4844C521.479 83.2135 521.812 84.2474 521.812 85.5859V86.5078H516.43C516.503 87.0599 516.721 87.5026 517.086 87.8359C517.456 88.1693 517.922 88.3359 518.484 88.3359C519.354 88.3359 520.034 88.0208 520.523 87.3906L521.633 88.6328C521.294 89.112 520.836 89.487 520.258 89.7578C519.68 90.0234 519.039 90.1562 518.336 90.1562ZM518.078 83.2188C517.63 83.2188 517.266 83.3698 516.984 83.6719C516.708 83.974 516.531 84.4062 516.453 84.9688H519.594V84.7891C519.583 84.2891 519.448 83.9036 519.188 83.6328C518.927 83.3568 518.557 83.2188 518.078 83.2188ZM525.219 81.5469L525.289 82.4922C525.888 81.7578 526.698 81.3906 527.719 81.3906C528.807 81.3906 529.555 81.8203 529.961 82.6797C530.555 81.8203 531.401 81.3906 532.5 81.3906C533.417 81.3906 534.099 81.6589 534.547 82.1953C534.995 82.7266 535.219 83.5286 535.219 84.6016V90H532.953V84.6094C532.953 84.1302 532.859 83.7812 532.672 83.5625C532.484 83.3385 532.154 83.2266 531.68 83.2266C531.003 83.2266 530.534 83.5495 530.273 84.1953L530.281 90H528.023V84.6172C528.023 84.1276 527.927 83.7734 527.734 83.5547C527.542 83.3359 527.214 83.2266 526.75 83.2266C526.109 83.2266 525.646 83.4922 525.359 84.0234V90H523.102V81.5469H525.219ZM544.57 85.8516C544.57 87.1536 544.273 88.1979 543.68 88.9844C543.091 89.7656 542.294 90.1562 541.289 90.1562C540.435 90.1562 539.745 89.8594 539.219 89.2656V93.25H536.961V81.5469H539.055L539.133 82.375C539.68 81.7188 540.393 81.3906 541.273 81.3906C542.315 81.3906 543.125 81.776 543.703 82.5469C544.281 83.3177 544.57 84.3802 544.57 85.7344V85.8516ZM542.312 85.6875C542.312 84.901 542.172 84.2943 541.891 83.8672C541.615 83.4401 541.211 83.2266 540.68 83.2266C539.971 83.2266 539.484 83.4974 539.219 84.0391V87.5C539.495 88.0573 539.987 88.3359 540.695 88.3359C541.773 88.3359 542.312 87.4531 542.312 85.6875ZM545.625 85.6953C545.625 84.8568 545.786 84.1094 546.109 83.4531C546.432 82.7969 546.896 82.2891 547.5 81.9297C548.109 81.5703 548.815 81.3906 549.617 81.3906C550.758 81.3906 551.688 81.7396 552.406 82.4375C553.13 83.1354 553.534 84.0833 553.617 85.2812L553.633 85.8594C553.633 87.1562 553.271 88.1979 552.547 88.9844C551.823 89.7656 550.852 90.1562 549.633 90.1562C548.414 90.1562 547.44 89.7656 546.711 88.9844C545.987 88.2031 545.625 87.1406 545.625 85.7969V85.6953ZM547.883 85.8594C547.883 86.6615 548.034 87.276 548.336 87.7031C548.638 88.125 549.07 88.3359 549.633 88.3359C550.18 88.3359 550.607 88.1276 550.914 87.7109C551.221 87.2891 551.375 86.6172 551.375 85.6953C551.375 84.9089 551.221 84.2995 550.914 83.8672C550.607 83.4349 550.174 83.2188 549.617 83.2188C549.065 83.2188 548.638 83.4349 548.336 83.8672C548.034 84.2943 547.883 84.9583 547.883 85.8594ZM566.617 85.8516C566.617 87.1536 566.32 88.1979 565.727 88.9844C565.138 89.7656 564.341 90.1562 563.336 90.1562C562.482 90.1562 561.792 89.8594 561.266 89.2656V93.25H559.008V81.5469H561.102L561.18 82.375C561.727 81.7188 562.44 81.3906 563.32 81.3906C564.362 81.3906 565.172 81.776 565.75 82.5469C566.328 83.3177 566.617 84.3802 566.617 85.7344V85.8516ZM564.359 85.6875C564.359 84.901 564.219 84.2943 563.938 83.8672C563.661 83.4401 563.258 83.2266 562.727 83.2266C562.018 83.2266 561.531 83.4974 561.266 84.0391V87.5C561.542 88.0573 562.034 88.3359 562.742 88.3359C563.82 88.3359 564.359 87.4531 564.359 85.6875ZM572.773 83.6641C572.466 83.6224 572.195 83.6016 571.961 83.6016C571.107 83.6016 570.547 83.8906 570.281 84.4688V90H568.023V81.5469H570.156L570.219 82.5547C570.672 81.7786 571.299 81.3906 572.102 81.3906C572.352 81.3906 572.586 81.4245 572.805 81.4922L572.773 83.6641ZM573.234 85.6953C573.234 84.8568 573.396 84.1094 573.719 83.4531C574.042 82.7969 574.505 82.2891 575.109 81.9297C575.719 81.5703 576.424 81.3906 577.227 81.3906C578.367 81.3906 579.297 81.7396 580.016 82.4375C580.74 83.1354 581.143 84.0833 581.227 85.2812L581.242 85.8594C581.242 87.1562 580.88 88.1979 580.156 88.9844C579.432 89.7656 578.461 90.1562 577.242 90.1562C576.023 90.1562 575.049 89.7656 574.32 88.9844C573.596 88.2031 573.234 87.1406 573.234 85.7969V85.6953ZM575.492 85.8594C575.492 86.6615 575.643 87.276 575.945 87.7031C576.247 88.125 576.68 88.3359 577.242 88.3359C577.789 88.3359 578.216 88.1276 578.523 87.7109C578.831 87.2891 578.984 86.6172 578.984 85.6953C578.984 84.9089 578.831 84.2995 578.523 83.8672C578.216 83.4349 577.784 83.2188 577.227 83.2188C576.674 83.2188 576.247 83.4349 575.945 83.8672C575.643 84.2943 575.492 84.9583 575.492 85.8594ZM586.148 88.3359C586.565 88.3359 586.904 88.2214 587.164 87.9922C587.424 87.763 587.56 87.4583 587.57 87.0781H589.688C589.682 87.651 589.526 88.1771 589.219 88.6562C588.911 89.1302 588.49 89.5 587.953 89.7656C587.422 90.026 586.833 90.1562 586.188 90.1562C584.979 90.1562 584.026 89.7734 583.328 89.0078C582.63 88.237 582.281 87.1745 582.281 85.8203V85.6719C582.281 84.3698 582.628 83.3307 583.32 82.5547C584.013 81.7786 584.964 81.3906 586.172 81.3906C587.229 81.3906 588.076 81.6927 588.711 82.2969C589.352 82.8958 589.677 83.6953 589.688 84.6953H587.57C587.56 84.2578 587.424 83.9036 587.164 83.6328C586.904 83.3568 586.56 83.2188 586.133 83.2188C585.607 83.2188 585.208 83.4115 584.938 83.7969C584.672 84.1771 584.539 84.7969 584.539 85.6562V85.8906C584.539 86.7604 584.672 87.3854 584.938 87.7656C585.203 88.1458 585.607 88.3359 586.148 88.3359ZM596.039 89.1406C595.482 89.8177 594.711 90.1562 593.727 90.1562C592.82 90.1562 592.128 89.8958 591.648 89.375C591.174 88.8542 590.932 88.0911 590.922 87.0859V81.5469H593.18V87.0078C593.18 87.888 593.581 88.3281 594.383 88.3281C595.148 88.3281 595.674 88.0625 595.961 87.5312V81.5469H598.227V90H596.102L596.039 89.1406ZM604.68 83.6641C604.372 83.6224 604.102 83.6016 603.867 83.6016C603.013 83.6016 602.453 83.8906 602.188 84.4688V90H599.93V81.5469H602.062L602.125 82.5547C602.578 81.7786 603.206 81.3906 604.008 81.3906C604.258 81.3906 604.492 81.4245 604.711 81.4922L604.68 83.6641ZM610.438 90C610.333 89.7969 610.258 89.5443 610.211 89.2422C609.664 89.8516 608.953 90.1562 608.078 90.1562C607.25 90.1562 606.562 89.9167 606.016 89.4375C605.474 88.9583 605.203 88.3542 605.203 87.625C605.203 86.7292 605.534 86.0417 606.195 85.5625C606.862 85.0833 607.823 84.8411 609.078 84.8359H610.117V84.3516C610.117 83.9609 610.016 83.6484 609.812 83.4141C609.615 83.1797 609.299 83.0625 608.867 83.0625C608.487 83.0625 608.188 83.1536 607.969 83.3359C607.755 83.5182 607.648 83.7682 607.648 84.0859H605.391C605.391 83.5964 605.542 83.1432 605.844 82.7266C606.146 82.3099 606.573 81.9844 607.125 81.75C607.677 81.5104 608.297 81.3906 608.984 81.3906C610.026 81.3906 610.852 81.6536 611.461 82.1797C612.076 82.7005 612.383 83.4349 612.383 84.3828V88.0469C612.388 88.849 612.5 89.4557 612.719 89.8672V90H610.438ZM608.57 88.4297C608.904 88.4297 609.211 88.3568 609.492 88.2109C609.773 88.0599 609.982 87.8594 610.117 87.6094V86.1562H609.273C608.143 86.1562 607.542 86.5469 607.469 87.3281L607.461 87.4609C607.461 87.7422 607.56 87.974 607.758 88.1562C607.956 88.3385 608.227 88.4297 608.57 88.4297ZM616.195 81.5469L616.266 82.5234C616.87 81.7682 617.68 81.3906 618.695 81.3906C619.591 81.3906 620.258 81.6536 620.695 82.1797C621.133 82.7057 621.357 83.4922 621.367 84.5391V90H619.109V84.5938C619.109 84.1146 619.005 83.7682 618.797 83.5547C618.589 83.3359 618.242 83.2266 617.758 83.2266C617.122 83.2266 616.646 83.4974 616.328 84.0391V90H614.07V81.5469H616.195ZM622.734 85.7109C622.734 84.3932 623.029 83.3438 623.617 82.5625C624.211 81.7812 625.021 81.3906 626.047 81.3906C626.87 81.3906 627.549 81.6979 628.086 82.3125V78H630.352V90H628.312L628.203 89.1016C627.641 89.8047 626.917 90.1562 626.031 90.1562C625.036 90.1562 624.237 89.7656 623.633 88.9844C623.034 88.1979 622.734 87.1068 622.734 85.7109ZM624.992 85.875C624.992 86.6667 625.13 87.2734 625.406 87.6953C625.682 88.1172 626.083 88.3281 626.609 88.3281C627.307 88.3281 627.799 88.0339 628.086 87.4453V84.1094C627.805 83.5208 627.318 83.2266 626.625 83.2266C625.536 83.2266 624.992 84.1094 624.992 85.875ZM631.75 85.6953C631.75 84.8568 631.911 84.1094 632.234 83.4531C632.557 82.7969 633.021 82.2891 633.625 81.9297C634.234 81.5703 634.94 81.3906 635.742 81.3906C636.883 81.3906 637.812 81.7396 638.531 82.4375C639.255 83.1354 639.659 84.0833 639.742 85.2812L639.758 85.8594C639.758 87.1562 639.396 88.1979 638.672 88.9844C637.948 89.7656 636.977 90.1562 635.758 90.1562C634.539 90.1562 633.565 89.7656 632.836 88.9844C632.112 88.2031 631.75 87.1406 631.75 85.7969V85.6953ZM634.008 85.8594C634.008 86.6615 634.159 87.276 634.461 87.7031C634.763 88.125 635.195 88.3359 635.758 88.3359C636.305 88.3359 636.732 88.1276 637.039 87.7109C637.346 87.2891 637.5 86.6172 637.5 85.6953C637.5 84.9089 637.346 84.2995 637.039 83.8672C636.732 83.4349 636.299 83.2188 635.742 83.2188C635.19 83.2188 634.763 83.4349 634.461 83.8672C634.159 84.2943 634.008 84.9583 634.008 85.8594ZM641.266 88.8906C641.266 88.5312 641.385 88.2396 641.625 88.0156C641.87 87.7917 642.174 87.6797 642.539 87.6797C642.909 87.6797 643.214 87.7917 643.453 88.0156C643.698 88.2396 643.82 88.5312 643.82 88.8906C643.82 89.2448 643.701 89.5339 643.461 89.7578C643.221 89.9766 642.914 90.0859 642.539 90.0859C642.169 90.0859 641.865 89.9766 641.625 89.7578C641.385 89.5339 641.266 89.2448 641.266 88.8906ZM658.867 86.2109C658.779 87.4349 658.326 88.3984 657.508 89.1016C656.695 89.8047 655.622 90.1562 654.289 90.1562C652.831 90.1562 651.682 89.6667 650.844 88.6875C650.01 87.7031 649.594 86.3542 649.594 84.6406V83.9453C649.594 82.8516 649.786 81.888 650.172 81.0547C650.557 80.2214 651.107 79.5833 651.82 79.1406C652.539 78.6927 653.372 78.4688 654.32 78.4688C655.633 78.4688 656.69 78.8203 657.492 79.5234C658.294 80.2266 658.758 81.2135 658.883 82.4844H656.539C656.482 81.75 656.276 81.2188 655.922 80.8906C655.573 80.5573 655.039 80.3906 654.32 80.3906C653.539 80.3906 652.953 80.6719 652.562 81.2344C652.177 81.7917 651.979 82.6589 651.969 83.8359V84.6953C651.969 85.9245 652.154 86.8229 652.523 87.3906C652.898 87.9583 653.487 88.2422 654.289 88.2422C655.013 88.2422 655.552 88.0781 655.906 87.75C656.266 87.4167 656.471 86.9036 656.523 86.2109H658.867ZM659.906 85.6953C659.906 84.8568 660.068 84.1094 660.391 83.4531C660.714 82.7969 661.177 82.2891 661.781 81.9297C662.391 81.5703 663.096 81.3906 663.898 81.3906C665.039 81.3906 665.969 81.7396 666.688 82.4375C667.411 83.1354 667.815 84.0833 667.898 85.2812L667.914 85.8594C667.914 87.1562 667.552 88.1979 666.828 88.9844C666.104 89.7656 665.133 90.1562 663.914 90.1562C662.695 90.1562 661.721 89.7656 660.992 88.9844C660.268 88.2031 659.906 87.1406 659.906 85.7969V85.6953ZM662.164 85.8594C662.164 86.6615 662.315 87.276 662.617 87.7031C662.919 88.125 663.352 88.3359 663.914 88.3359C664.461 88.3359 664.888 88.1276 665.195 87.7109C665.503 87.2891 665.656 86.6172 665.656 85.6953C665.656 84.9089 665.503 84.2995 665.195 83.8672C664.888 83.4349 664.456 83.2188 663.898 83.2188C663.346 83.2188 662.919 83.4349 662.617 83.8672C662.315 84.2943 662.164 84.9583 662.164 85.8594ZM671.383 81.5469L671.453 82.5234C672.057 81.7682 672.867 81.3906 673.883 81.3906C674.779 81.3906 675.445 81.6536 675.883 82.1797C676.32 82.7057 676.544 83.4922 676.555 84.5391V90H674.297V84.5938C674.297 84.1146 674.193 83.7682 673.984 83.5547C673.776 83.3359 673.43 83.2266 672.945 83.2266C672.31 83.2266 671.833 83.4974 671.516 84.0391V90H669.258V81.5469H671.383ZM680.977 79.4688V81.5469H682.422V83.2031H680.977V87.4219C680.977 87.7344 681.036 87.9583 681.156 88.0938C681.276 88.2292 681.505 88.2969 681.844 88.2969C682.094 88.2969 682.315 88.2786 682.508 88.2422V89.9531C682.065 90.0885 681.609 90.1562 681.141 90.1562C679.557 90.1562 678.75 89.3568 678.719 87.7578V83.2031H677.484V81.5469H678.719V79.4688H680.977ZM687.57 90.1562C686.331 90.1562 685.32 89.776 684.539 89.0156C683.763 88.2552 683.375 87.2422 683.375 85.9766V85.7578C683.375 84.9089 683.539 84.151 683.867 83.4844C684.195 82.8125 684.659 82.2969 685.258 81.9375C685.862 81.5729 686.549 81.3906 687.32 81.3906C688.477 81.3906 689.385 81.7552 690.047 82.4844C690.714 83.2135 691.047 84.2474 691.047 85.5859V86.5078H685.664C685.737 87.0599 685.956 87.5026 686.32 87.8359C686.69 88.1693 687.156 88.3359 687.719 88.3359C688.589 88.3359 689.268 88.0208 689.758 87.3906L690.867 88.6328C690.529 89.112 690.07 89.487 689.492 89.7578C688.914 90.0234 688.273 90.1562 687.57 90.1562ZM687.312 83.2188C686.865 83.2188 686.5 83.3698 686.219 83.6719C685.943 83.974 685.766 84.4062 685.688 84.9688H688.828V84.7891C688.818 84.2891 688.682 83.9036 688.422 83.6328C688.161 83.3568 687.792 83.2188 687.312 83.2188ZM699.836 88.3359C700.253 88.3359 700.591 88.2214 700.852 87.9922C701.112 87.763 701.247 87.4583 701.258 87.0781H703.375C703.37 87.651 703.214 88.1771 702.906 88.6562C702.599 89.1302 702.177 89.5 701.641 89.7656C701.109 90.026 700.521 90.1562 699.875 90.1562C698.667 90.1562 697.714 89.7734 697.016 89.0078C696.318 88.237 695.969 87.1745 695.969 85.8203V85.6719C695.969 84.3698 696.315 83.3307 697.008 82.5547C697.701 81.7786 698.651 81.3906 699.859 81.3906C700.917 81.3906 701.763 81.6927 702.398 82.2969C703.039 82.8958 703.365 83.6953 703.375 84.6953H701.258C701.247 84.2578 701.112 83.9036 700.852 83.6328C700.591 83.3568 700.247 83.2188 699.82 83.2188C699.294 83.2188 698.896 83.4115 698.625 83.7969C698.359 84.1771 698.227 84.7969 698.227 85.6562V85.8906C698.227 86.7604 698.359 87.3854 698.625 87.7656C698.891 88.1458 699.294 88.3359 699.836 88.3359ZM704.312 85.6953C704.312 84.8568 704.474 84.1094 704.797 83.4531C705.12 82.7969 705.583 82.2891 706.188 81.9297C706.797 81.5703 707.503 81.3906 708.305 81.3906C709.445 81.3906 710.375 81.7396 711.094 82.4375C711.818 83.1354 712.221 84.0833 712.305 85.2812L712.32 85.8594C712.32 87.1562 711.958 88.1979 711.234 88.9844C710.51 89.7656 709.539 90.1562 708.32 90.1562C707.102 90.1562 706.128 89.7656 705.398 88.9844C704.674 88.2031 704.312 87.1406 704.312 85.7969V85.6953ZM706.57 85.8594C706.57 86.6615 706.721 87.276 707.023 87.7031C707.326 88.125 707.758 88.3359 708.32 88.3359C708.867 88.3359 709.294 88.1276 709.602 87.7109C709.909 87.2891 710.062 86.6172 710.062 85.6953C710.062 84.9089 709.909 84.2995 709.602 83.8672C709.294 83.4349 708.862 83.2188 708.305 83.2188C707.753 83.2188 707.326 83.4349 707.023 83.8672C706.721 84.2943 706.57 84.9583 706.57 85.8594ZM715.828 81.5469L715.898 82.4922C716.497 81.7578 717.307 81.3906 718.328 81.3906C719.417 81.3906 720.164 81.8203 720.57 82.6797C721.164 81.8203 722.01 81.3906 723.109 81.3906C724.026 81.3906 724.708 81.6589 725.156 82.1953C725.604 82.7266 725.828 83.5286 725.828 84.6016V90H723.562V84.6094C723.562 84.1302 723.469 83.7812 723.281 83.5625C723.094 83.3385 722.763 83.2266 722.289 83.2266C721.612 83.2266 721.143 83.5495 720.883 84.1953L720.891 90H718.633V84.6172C718.633 84.1276 718.536 83.7734 718.344 83.5547C718.151 83.3359 717.823 83.2266 717.359 83.2266C716.719 83.2266 716.255 83.4922 715.969 84.0234V90H713.711V81.5469H715.828ZM736.453 90C736.349 89.7969 736.273 89.5443 736.227 89.2422C735.68 89.8516 734.969 90.1562 734.094 90.1562C733.266 90.1562 732.578 89.9167 732.031 89.4375C731.49 88.9583 731.219 88.3542 731.219 87.625C731.219 86.7292 731.549 86.0417 732.211 85.5625C732.878 85.0833 733.839 84.8411 735.094 84.8359H736.133V84.3516C736.133 83.9609 736.031 83.6484 735.828 83.4141C735.63 83.1797 735.315 83.0625 734.883 83.0625C734.503 83.0625 734.203 83.1536 733.984 83.3359C733.771 83.5182 733.664 83.7682 733.664 84.0859H731.406C731.406 83.5964 731.557 83.1432 731.859 82.7266C732.161 82.3099 732.589 81.9844 733.141 81.75C733.693 81.5104 734.312 81.3906 735 81.3906C736.042 81.3906 736.867 81.6536 737.477 82.1797C738.091 82.7005 738.398 83.4349 738.398 84.3828V88.0469C738.404 88.849 738.516 89.4557 738.734 89.8672V90H736.453ZM734.586 88.4297C734.919 88.4297 735.227 88.3568 735.508 88.2109C735.789 88.0599 735.997 87.8594 736.133 87.6094V86.1562H735.289C734.159 86.1562 733.557 86.5469 733.484 87.3281L733.477 87.4609C733.477 87.7422 733.576 87.974 733.773 88.1562C733.971 88.3385 734.242 88.4297 734.586 88.4297ZM743.789 85.7109C743.789 84.4141 744.096 83.3698 744.711 82.5781C745.331 81.7865 746.164 81.3906 747.211 81.3906C748.138 81.3906 748.859 81.7083 749.375 82.3438L749.469 81.5469H751.516V89.7188C751.516 90.4583 751.346 91.1016 751.008 91.6484C750.674 92.1953 750.203 92.612 749.594 92.8984C748.984 93.1849 748.271 93.3281 747.453 93.3281C746.833 93.3281 746.229 93.2031 745.641 92.9531C745.052 92.7083 744.607 92.3906 744.305 92L745.305 90.625C745.867 91.2552 746.549 91.5703 747.352 91.5703C747.951 91.5703 748.417 91.4089 748.75 91.0859C749.083 90.7682 749.25 90.3151 749.25 89.7266V89.2734C748.729 89.862 748.044 90.1562 747.195 90.1562C746.18 90.1562 745.357 89.7604 744.727 88.9688C744.102 88.1719 743.789 87.1172 743.789 85.8047V85.7109ZM746.047 85.875C746.047 86.6406 746.201 87.2422 746.508 87.6797C746.815 88.112 747.237 88.3281 747.773 88.3281C748.461 88.3281 748.953 88.0703 749.25 87.5547V84C748.948 83.4844 748.461 83.2266 747.789 83.2266C747.247 83.2266 746.82 83.4479 746.508 83.8906C746.201 84.3333 746.047 84.9948 746.047 85.875ZM757.148 90.1562C755.909 90.1562 754.898 89.776 754.117 89.0156C753.341 88.2552 752.953 87.2422 752.953 85.9766V85.7578C752.953 84.9089 753.117 84.151 753.445 83.4844C753.773 82.8125 754.237 82.2969 754.836 81.9375C755.44 81.5729 756.128 81.3906 756.898 81.3906C758.055 81.3906 758.964 81.7552 759.625 82.4844C760.292 83.2135 760.625 84.2474 760.625 85.5859V86.5078H755.242C755.315 87.0599 755.534 87.5026 755.898 87.8359C756.268 88.1693 756.734 88.3359 757.297 88.3359C758.167 88.3359 758.846 88.0208 759.336 87.3906L760.445 88.6328C760.107 89.112 759.648 89.487 759.07 89.7578C758.492 90.0234 757.852 90.1562 757.148 90.1562ZM756.891 83.2188C756.443 83.2188 756.078 83.3698 755.797 83.6719C755.521 83.974 755.344 84.4062 755.266 84.9688H758.406V84.7891C758.396 84.2891 758.26 83.9036 758 83.6328C757.74 83.3568 757.37 83.2188 756.891 83.2188ZM763.992 81.5469L764.062 82.5234C764.667 81.7682 765.477 81.3906 766.492 81.3906C767.388 81.3906 768.055 81.6536 768.492 82.1797C768.93 82.7057 769.154 83.4922 769.164 84.5391V90H766.906V84.5938C766.906 84.1146 766.802 83.7682 766.594 83.5547C766.385 83.3359 766.039 83.2266 765.555 83.2266C764.919 83.2266 764.443 83.4974 764.125 84.0391V90H761.867V81.5469H763.992ZM773.586 79.4688V81.5469H775.031V83.2031H773.586V87.4219C773.586 87.7344 773.646 87.9583 773.766 88.0938C773.885 88.2292 774.115 88.2969 774.453 88.2969C774.703 88.2969 774.924 88.2786 775.117 88.2422V89.9531C774.674 90.0885 774.219 90.1562 773.75 90.1562C772.167 90.1562 771.359 89.3568 771.328 87.7578V83.2031H770.094V81.5469H771.328V79.4688H773.586ZM780.18 90.1562C778.94 90.1562 777.93 89.776 777.148 89.0156C776.372 88.2552 775.984 87.2422 775.984 85.9766V85.7578C775.984 84.9089 776.148 84.151 776.477 83.4844C776.805 82.8125 777.268 82.2969 777.867 81.9375C778.471 81.5729 779.159 81.3906 779.93 81.3906C781.086 81.3906 781.995 81.7552 782.656 82.4844C783.323 83.2135 783.656 84.2474 783.656 85.5859V86.5078H778.273C778.346 87.0599 778.565 87.5026 778.93 87.8359C779.299 88.1693 779.766 88.3359 780.328 88.3359C781.198 88.3359 781.878 88.0208 782.367 87.3906L783.477 88.6328C783.138 89.112 782.68 89.487 782.102 89.7578C781.523 90.0234 780.883 90.1562 780.18 90.1562ZM779.922 83.2188C779.474 83.2188 779.109 83.3698 778.828 83.6719C778.552 83.974 778.375 84.4062 778.297 84.9688H781.438V84.7891C781.427 84.2891 781.292 83.9036 781.031 83.6328C780.771 83.3568 780.401 83.2188 779.922 83.2188Z" fill="#FEF5F5"/>
<path d="M41.375 37.2812C41.375 41.5312 40.6875 45.2292 39.3125 48.375C37.9375 51.5 36.0312 54.0104 33.5938 55.9062L41.1562 61.8438L35.1875 67.125L25.5 59.3438C24.3958 59.5312 23.25 59.625 22.0625 59.625C18.2917 59.625 14.9271 58.7188 11.9688 56.9062C9.01042 55.0938 6.71875 52.5104 5.09375 49.1562C3.46875 45.7812 2.64583 41.9062 2.625 37.5312V35.2812C2.625 30.8021 3.42708 26.8646 5.03125 23.4688C6.65625 20.0521 8.9375 17.4375 11.875 15.625C14.8333 13.7917 18.2083 12.875 22 12.875C25.7917 12.875 29.1562 13.7917 32.0938 15.625C35.0521 17.4375 37.3333 20.0521 38.9375 23.4688C40.5625 26.8646 41.375 30.7917 41.375 35.25V37.2812ZM31.875 35.2188C31.875 30.4479 31.0208 26.8229 29.3125 24.3438C27.6042 21.8646 25.1667 20.625 22 20.625C18.8542 20.625 16.4271 21.8542 14.7188 24.3125C13.0104 26.75 12.1458 30.3333 12.125 35.0625V37.2812C12.125 41.9271 12.9792 45.5312 14.6875 48.0938C16.3958 50.6562 18.8542 51.9375 22.0625 51.9375C25.2083 51.9375 27.625 50.7083 29.3125 48.25C31 45.7708 31.8542 42.1667 31.875 37.4375V35.2188ZM67.9062 55.5625C65.6771 58.2708 62.5938 59.625 58.6562 59.625C55.0312 59.625 52.2604 58.5833 50.3438 56.5C48.4479 54.4167 47.4792 51.3646 47.4375 47.3438V25.1875H56.4688V47.0312C56.4688 50.5521 58.0729 52.3125 61.2812 52.3125C64.3438 52.3125 66.4479 51.25 67.5938 49.125V25.1875H76.6562V59H68.1562L67.9062 55.5625ZM99.0312 59.625C94.0729 59.625 90.0312 58.1042 86.9062 55.0625C83.8021 52.0208 82.25 47.9688 82.25 42.9062V42.0312C82.25 38.6354 82.9062 35.6042 84.2188 32.9375C85.5312 30.25 87.3854 28.1875 89.7812 26.75C92.1979 25.2917 94.9479 24.5625 98.0312 24.5625C102.656 24.5625 106.292 26.0208 108.938 28.9375C111.604 31.8542 112.938 35.9896 112.938 41.3438V45.0312H91.4062C91.6979 47.2396 92.5729 49.0104 94.0312 50.3438C95.5104 51.6771 97.375 52.3438 99.625 52.3438C103.104 52.3438 105.823 51.0833 107.781 48.5625L112.219 53.5312C110.865 55.4479 109.031 56.9479 106.719 58.0312C104.406 59.0938 101.844 59.625 99.0312 59.625ZM98 31.875C96.2083 31.875 94.75 32.4792 93.625 33.6875C92.5208 34.8958 91.8125 36.625 91.5 38.875H104.062V38.1562C104.021 36.1562 103.479 34.6146 102.438 33.5312C101.396 32.4271 99.9167 31.875 98 31.875ZM137.094 33.6562C135.865 33.4896 134.781 33.4062 133.844 33.4062C130.427 33.4062 128.188 34.5625 127.125 36.875V59H118.094V25.1875H126.625L126.875 29.2188C128.688 26.1146 131.198 24.5625 134.406 24.5625C135.406 24.5625 136.344 24.6979 137.219 24.9688L137.094 33.6562ZM156.406 59.625C151.448 59.625 147.406 58.1042 144.281 55.0625C141.177 52.0208 139.625 47.9688 139.625 42.9062V42.0312C139.625 38.6354 140.281 35.6042 141.594 32.9375C142.906 30.25 144.76 28.1875 147.156 26.75C149.573 25.2917 152.323 24.5625 155.406 24.5625C160.031 24.5625 163.667 26.0208 166.312 28.9375C168.979 31.8542 170.312 35.9896 170.312 41.3438V45.0312H148.781C149.073 47.2396 149.948 49.0104 151.406 50.3438C152.885 51.6771 154.75 52.3438 157 52.3438C160.479 52.3438 163.198 51.0833 165.156 48.5625L169.594 53.5312C168.24 55.4479 166.406 56.9479 164.094 58.0312C161.781 59.0938 159.219 59.625 156.406 59.625ZM155.375 31.875C153.583 31.875 152.125 32.4792 151 33.6875C149.896 34.8958 149.188 36.625 148.875 38.875H161.438V38.1562C161.396 36.1562 160.854 34.6146 159.812 33.5312C158.771 32.4271 157.292 31.875 155.375 31.875ZM183.938 25.1875L184.219 28.9688C186.615 26.0312 189.854 24.5625 193.938 24.5625C198.292 24.5625 201.281 26.2812 202.906 29.7188C205.281 26.2812 208.667 24.5625 213.062 24.5625C216.729 24.5625 219.458 25.6354 221.25 27.7812C223.042 29.9062 223.938 33.1146 223.938 37.4062V59H214.875V37.4375C214.875 35.5208 214.5 34.125 213.75 33.25C213 32.3542 211.677 31.9062 209.781 31.9062C207.073 31.9062 205.198 33.1979 204.156 35.7812L204.188 59H195.156V37.4688C195.156 35.5104 194.771 34.0938 194 33.2188C193.229 32.3438 191.917 31.9062 190.062 31.9062C187.5 31.9062 185.646 32.9688 184.5 35.0938V59H175.469V25.1875H183.938ZM229.5 41.7812C229.5 38.4271 230.146 35.4375 231.438 32.8125C232.729 30.1875 234.583 28.1562 237 26.7188C239.438 25.2812 242.26 24.5625 245.469 24.5625C250.031 24.5625 253.75 25.9583 256.625 28.75C259.521 31.5417 261.135 35.3333 261.469 40.125L261.531 42.4375C261.531 47.625 260.083 51.7917 257.188 54.9375C254.292 58.0625 250.406 59.625 245.531 59.625C240.656 59.625 236.76 58.0625 233.844 54.9375C230.948 51.8125 229.5 47.5625 229.5 42.1875V41.7812ZM238.531 42.4375C238.531 45.6458 239.135 48.1042 240.344 49.8125C241.552 51.5 243.281 52.3438 245.531 52.3438C247.719 52.3438 249.427 51.5104 250.656 49.8438C251.885 48.1562 252.5 45.4688 252.5 41.7812C252.5 38.6354 251.885 36.1979 250.656 34.4688C249.427 32.7396 247.698 31.875 245.469 31.875C243.26 31.875 241.552 32.7396 240.344 34.4688C239.135 36.1771 238.531 38.8333 238.531 42.4375ZM285.406 49.6562C285.406 48.5521 284.854 47.6875 283.75 47.0625C282.667 46.4167 280.917 45.8438 278.5 45.3438C270.458 43.6562 266.438 40.2396 266.438 35.0938C266.438 32.0938 267.677 29.5938 270.156 27.5938C272.656 25.5729 275.917 24.5625 279.938 24.5625C284.229 24.5625 287.656 25.5729 290.219 27.5938C292.802 29.6146 294.094 32.2396 294.094 35.4688H285.062C285.062 34.1771 284.646 33.1146 283.812 32.2812C282.979 31.4271 281.677 31 279.906 31C278.385 31 277.208 31.3438 276.375 32.0312C275.542 32.7188 275.125 33.5938 275.125 34.6562C275.125 35.6562 275.594 36.4688 276.531 37.0938C277.49 37.6979 279.094 38.2292 281.344 38.6875C283.594 39.125 285.49 39.625 287.031 40.1875C291.802 41.9375 294.188 44.9688 294.188 49.2812C294.188 52.3646 292.865 54.8646 290.219 56.7812C287.573 58.6771 284.156 59.625 279.969 59.625C277.135 59.625 274.615 59.125 272.406 58.125C270.219 57.1042 268.5 55.7188 267.25 53.9688C266 52.1979 265.375 50.2917 265.375 48.25H273.938C274.021 49.8542 274.615 51.0833 275.719 51.9375C276.823 52.7917 278.302 53.2188 280.156 53.2188C281.885 53.2188 283.188 52.8958 284.062 52.25C284.958 51.5833 285.406 50.7188 285.406 49.6562ZM335.562 59C335.146 58.1875 334.844 57.1771 334.656 55.9688C332.469 58.4062 329.625 59.625 326.125 59.625C322.812 59.625 320.062 58.6667 317.875 56.75C315.708 54.8333 314.625 52.4167 314.625 49.5C314.625 45.9167 315.948 43.1667 318.594 41.25C321.26 39.3333 325.104 38.3646 330.125 38.3438H334.281V36.4062C334.281 34.8438 333.875 33.5938 333.062 32.6562C332.271 31.7188 331.01 31.25 329.281 31.25C327.76 31.25 326.562 31.6146 325.688 32.3438C324.833 33.0729 324.406 34.0729 324.406 35.3438H315.375C315.375 33.3854 315.979 31.5729 317.188 29.9062C318.396 28.2396 320.104 26.9375 322.312 26C324.521 25.0417 327 24.5625 329.75 24.5625C333.917 24.5625 337.219 25.6146 339.656 27.7188C342.115 29.8021 343.344 32.7396 343.344 36.5312V51.1875C343.365 54.3958 343.812 56.8229 344.688 58.4688V59H335.562ZM328.094 52.7188C329.427 52.7188 330.656 52.4271 331.781 51.8438C332.906 51.2396 333.74 50.4375 334.281 49.4375V43.625H330.906C326.385 43.625 323.979 45.1875 323.688 48.3125L323.656 48.8438C323.656 49.9688 324.052 50.8958 324.844 51.625C325.635 52.3542 326.719 52.7188 328.094 52.7188ZM348.969 41.8438C348.969 36.6562 350.198 32.4792 352.656 29.3125C355.135 26.1458 358.469 24.5625 362.656 24.5625C366.365 24.5625 369.25 25.8333 371.312 28.375L371.688 25.1875H379.875V57.875C379.875 60.8333 379.198 63.4062 377.844 65.5938C376.51 67.7812 374.625 69.4479 372.188 70.5938C369.75 71.7396 366.896 72.3125 363.625 72.3125C361.146 72.3125 358.729 71.8125 356.375 70.8125C354.021 69.8333 352.24 68.5625 351.031 67L355.031 61.5C357.281 64.0208 360.01 65.2812 363.219 65.2812C365.615 65.2812 367.479 64.6354 368.812 63.3438C370.146 62.0729 370.812 60.2604 370.812 57.9062V56.0938C368.729 58.4479 365.99 59.625 362.594 59.625C358.531 59.625 355.24 58.0417 352.719 54.875C350.219 51.6875 348.969 47.4688 348.969 42.2188V41.8438ZM358 42.5C358 45.5625 358.615 47.9688 359.844 49.7188C361.073 51.4479 362.76 52.3125 364.906 52.3125C367.656 52.3125 369.625 51.2812 370.812 49.2188V35C369.604 32.9375 367.656 31.9062 364.969 31.9062C362.802 31.9062 361.094 32.7917 359.844 34.5625C358.615 36.3333 358 38.9792 358 42.5ZM396.375 59H387.312V25.1875H396.375V59ZM386.781 16.4375C386.781 15.0833 387.229 13.9688 388.125 13.0938C389.042 12.2188 390.281 11.7812 391.844 11.7812C393.385 11.7812 394.615 12.2188 395.531 13.0938C396.448 13.9688 396.906 15.0833 396.906 16.4375C396.906 17.8125 396.438 18.9375 395.5 19.8125C394.583 20.6875 393.365 21.125 391.844 21.125C390.323 21.125 389.094 20.6875 388.156 19.8125C387.24 18.9375 386.781 17.8125 386.781 16.4375ZM413.375 59H404.312V11H413.375V59ZM430.375 59H421.312V25.1875H430.375V59ZM420.781 16.4375C420.781 15.0833 421.229 13.9688 422.125 13.0938C423.042 12.2188 424.281 11.7812 425.844 11.7812C427.385 11.7812 428.615 12.2188 429.531 13.0938C430.448 13.9688 430.906 15.0833 430.906 16.4375C430.906 17.8125 430.438 18.9375 429.5 19.8125C428.583 20.6875 427.365 21.125 425.844 21.125C424.323 21.125 423.094 20.6875 422.156 19.8125C421.24 18.9375 420.781 17.8125 420.781 16.4375ZM448.219 51.7188H464.75V59H436.688V53.5L452.594 32.5H437.156V25.1875H464.25V30.5312L448.219 51.7188ZM490 59C489.583 58.1875 489.281 57.1771 489.094 55.9688C486.906 58.4062 484.062 59.625 480.562 59.625C477.25 59.625 474.5 58.6667 472.312 56.75C470.146 54.8333 469.062 52.4167 469.062 49.5C469.062 45.9167 470.385 43.1667 473.031 41.25C475.698 39.3333 479.542 38.3646 484.562 38.3438H488.719V36.4062C488.719 34.8438 488.312 33.5938 487.5 32.6562C486.708 31.7188 485.448 31.25 483.719 31.25C482.198 31.25 481 31.6146 480.125 32.3438C479.271 33.0729 478.844 34.0729 478.844 35.3438H469.812C469.812 33.3854 470.417 31.5729 471.625 29.9062C472.833 28.2396 474.542 26.9375 476.75 26C478.958 25.0417 481.438 24.5625 484.188 24.5625C488.354 24.5625 491.656 25.6146 494.094 27.7188C496.552 29.8021 497.781 32.7396 497.781 36.5312V51.1875C497.802 54.3958 498.25 56.8229 499.125 58.4688V59H490ZM482.531 52.7188C483.865 52.7188 485.094 52.4271 486.219 51.8438C487.344 51.2396 488.177 50.4375 488.719 49.4375V43.625H485.344C480.823 43.625 478.417 45.1875 478.125 48.3125L478.094 48.8438C478.094 49.9688 478.49 50.8958 479.281 51.625C480.073 52.3542 481.156 52.7188 482.531 52.7188ZM523.719 33.6562C522.49 33.4896 521.406 33.4062 520.469 33.4062C517.052 33.4062 514.812 34.5625 513.75 36.875V59H504.719V25.1875H513.25L513.5 29.2188C515.312 26.1146 517.823 24.5625 521.031 24.5625C522.031 24.5625 522.969 24.6979 523.844 24.9688L523.719 33.6562ZM562.344 49.6562C562.344 48.5521 561.792 47.6875 560.688 47.0625C559.604 46.4167 557.854 45.8438 555.438 45.3438C547.396 43.6562 543.375 40.2396 543.375 35.0938C543.375 32.0938 544.615 29.5938 547.094 27.5938C549.594 25.5729 552.854 24.5625 556.875 24.5625C561.167 24.5625 564.594 25.5729 567.156 27.5938C569.74 29.6146 571.031 32.2396 571.031 35.4688H562C562 34.1771 561.583 33.1146 560.75 32.2812C559.917 31.4271 558.615 31 556.844 31C555.323 31 554.146 31.3438 553.312 32.0312C552.479 32.7188 552.062 33.5938 552.062 34.6562C552.062 35.6562 552.531 36.4688 553.469 37.0938C554.427 37.6979 556.031 38.2292 558.281 38.6875C560.531 39.125 562.427 39.625 563.969 40.1875C568.74 41.9375 571.125 44.9688 571.125 49.2812C571.125 52.3646 569.802 54.8646 567.156 56.7812C564.51 58.6771 561.094 59.625 556.906 59.625C554.073 59.625 551.552 59.125 549.344 58.125C547.156 57.1042 545.438 55.7188 544.188 53.9688C542.938 52.1979 542.312 50.2917 542.312 48.25H550.875C550.958 49.8542 551.552 51.0833 552.656 51.9375C553.76 52.7917 555.24 53.2188 557.094 53.2188C558.823 53.2188 560.125 52.8958 561 52.25C561.896 51.5833 562.344 50.7188 562.344 49.6562ZM597.219 55.5625C594.99 58.2708 591.906 59.625 587.969 59.625C584.344 59.625 581.573 58.5833 579.656 56.5C577.76 54.4167 576.792 51.3646 576.75 47.3438V25.1875H585.781V47.0312C585.781 50.5521 587.385 52.3125 590.594 52.3125C593.656 52.3125 595.76 51.25 596.906 49.125V25.1875H605.969V59H597.469L597.219 55.5625ZM632.375 59C631.958 58.1875 631.656 57.1771 631.469 55.9688C629.281 58.4062 626.438 59.625 622.938 59.625C619.625 59.625 616.875 58.6667 614.688 56.75C612.521 54.8333 611.438 52.4167 611.438 49.5C611.438 45.9167 612.76 43.1667 615.406 41.25C618.073 39.3333 621.917 38.3646 626.938 38.3438H631.094V36.4062C631.094 34.8438 630.688 33.5938 629.875 32.6562C629.083 31.7188 627.823 31.25 626.094 31.25C624.573 31.25 623.375 31.6146 622.5 32.3438C621.646 33.0729 621.219 34.0729 621.219 35.3438H612.188C612.188 33.3854 612.792 31.5729 614 29.9062C615.208 28.2396 616.917 26.9375 619.125 26C621.333 25.0417 623.812 24.5625 626.562 24.5625C630.729 24.5625 634.031 25.6146 636.469 27.7188C638.927 29.8021 640.156 32.7396 640.156 36.5312V51.1875C640.177 54.3958 640.625 56.8229 641.5 58.4688V59H632.375ZM624.906 52.7188C626.24 52.7188 627.469 52.4271 628.594 51.8438C629.719 51.2396 630.552 50.4375 631.094 49.4375V43.625H627.719C623.198 43.625 620.792 45.1875 620.5 48.3125L620.469 48.8438C620.469 49.9688 620.865 50.8958 621.656 51.625C622.448 52.3542 623.531 52.7188 624.906 52.7188ZM675.688 47.9688L681.969 25.1875H691.406L680 59H671.375L659.969 25.1875H669.406L675.688 47.9688ZM704.938 59H695.875V25.1875H704.938V59ZM695.344 16.4375C695.344 15.0833 695.792 13.9688 696.688 13.0938C697.604 12.2188 698.844 11.7812 700.406 11.7812C701.948 11.7812 703.177 12.2188 704.094 13.0938C705.01 13.9688 705.469 15.0833 705.469 16.4375C705.469 17.8125 705 18.9375 704.062 19.8125C703.146 20.6875 701.927 21.125 700.406 21.125C698.885 21.125 697.656 20.6875 696.719 19.8125C695.802 18.9375 695.344 17.8125 695.344 16.4375ZM711 41.8438C711 36.5729 712.177 32.375 714.531 29.25C716.906 26.125 720.146 24.5625 724.25 24.5625C727.542 24.5625 730.26 25.7917 732.406 28.25V11H741.469V59H733.312L732.875 55.4062C730.625 58.2188 727.729 59.625 724.188 59.625C720.208 59.625 717.01 58.0625 714.594 54.9375C712.198 51.7917 711 47.4271 711 41.8438ZM720.031 42.5C720.031 45.6667 720.583 48.0938 721.688 49.7812C722.792 51.4688 724.396 52.3125 726.5 52.3125C729.292 52.3125 731.26 51.1354 732.406 48.7812V35.4375C731.281 33.0833 729.333 31.9062 726.562 31.9062C722.208 31.9062 720.031 35.4375 720.031 42.5ZM768.062 59C767.646 58.1875 767.344 57.1771 767.156 55.9688C764.969 58.4062 762.125 59.625 758.625 59.625C755.312 59.625 752.562 58.6667 750.375 56.75C748.208 54.8333 747.125 52.4167 747.125 49.5C747.125 45.9167 748.448 43.1667 751.094 41.25C753.76 39.3333 757.604 38.3646 762.625 38.3438H766.781V36.4062C766.781 34.8438 766.375 33.5938 765.562 32.6562C764.771 31.7188 763.51 31.25 761.781 31.25C760.26 31.25 759.062 31.6146 758.188 32.3438C757.333 33.0729 756.906 34.0729 756.906 35.3438H747.875C747.875 33.3854 748.479 31.5729 749.688 29.9062C750.896 28.2396 752.604 26.9375 754.812 26C757.021 25.0417 759.5 24.5625 762.25 24.5625C766.417 24.5625 769.719 25.6146 772.156 27.7188C774.615 29.8021 775.844 32.7396 775.844 36.5312V51.1875C775.865 54.3958 776.312 56.8229 777.188 58.4688V59H768.062ZM760.594 52.7188C761.927 52.7188 763.156 52.4271 764.281 51.8438C765.406 51.2396 766.24 50.4375 766.781 49.4375V43.625H763.406C758.885 43.625 756.479 45.1875 756.188 48.3125L756.156 48.8438C756.156 49.9688 756.552 50.8958 757.344 51.625C758.135 52.3542 759.219 52.7188 760.594 52.7188ZM783.25 54.5625C783.25 53.125 783.729 51.9583 784.688 51.0625C785.667 50.1667 786.885 49.7188 788.344 49.7188C789.823 49.7188 791.042 50.1667 792 51.0625C792.979 51.9583 793.469 53.125 793.469 54.5625C793.469 55.9792 792.99 57.1354 792.031 58.0312C791.073 58.9062 789.844 59.3438 788.344 59.3438C786.865 59.3438 785.646 58.9062 784.688 58.0312C783.729 57.1354 783.25 55.9792 783.25 54.5625Z" fill="#FEF5F5"/>
</svg>
