<svg width="535" height="87" viewBox="0 0 535 87" fill="none" xmlns="http://www.w3.org/2000/svg">
<path d="M31.4375 40.4062H13.4375V59H4.0625V13.5H33.6875V21.0938H13.4375V32.8438H31.4375V40.4062ZM57.0625 59C56.6458 58.1875 56.3438 57.1771 56.1562 55.9688C53.9688 58.4062 51.125 59.625 47.625 59.625C44.3125 59.625 41.5625 58.6667 39.375 56.75C37.2083 54.8333 36.125 52.4167 36.125 49.5C36.125 45.9167 37.4479 43.1667 40.0938 41.25C42.7604 39.3333 46.6042 38.3646 51.625 38.3438H55.7812V36.4062C55.7812 34.8438 55.375 33.5938 54.5625 32.6562C53.7708 31.7188 52.5104 31.25 50.7812 31.25C49.2604 31.25 48.0625 31.6146 47.1875 32.3438C46.3333 33.0729 45.9062 34.0729 45.9062 35.3438H36.875C36.875 33.3854 37.4792 31.5729 38.6875 29.9062C39.8958 28.2396 41.6042 26.9375 43.8125 26C46.0208 25.0417 48.5 24.5625 51.25 24.5625C55.4167 24.5625 58.7188 25.6146 61.1562 27.7188C63.6146 29.8021 64.8438 32.7396 64.8438 36.5312V51.1875C64.8646 54.3958 65.3125 56.8229 66.1875 58.4688V59H57.0625ZM49.5938 52.7188C50.9271 52.7188 52.1562 52.4271 53.2812 51.8438C54.4062 51.2396 55.2396 50.4375 55.7812 49.4375V43.625H52.4062C47.8854 43.625 45.4792 45.1875 45.1875 48.3125L45.1562 48.8438C45.1562 49.9688 45.5521 50.8958 46.3438 51.625C47.1354 52.3542 48.2188 52.7188 49.5938 52.7188ZM85.8438 52.3438C87.5104 52.3438 88.8646 51.8854 89.9062 50.9688C90.9479 50.0521 91.4896 48.8333 91.5312 47.3125H100C99.9792 49.6042 99.3542 51.7083 98.125 53.625C96.8958 55.5208 95.2083 57 93.0625 58.0625C90.9375 59.1042 88.5833 59.625 86 59.625C81.1667 59.625 77.3542 58.0938 74.5625 55.0312C71.7708 51.9479 70.375 47.6979 70.375 42.2812V41.6875C70.375 36.4792 71.7604 32.3229 74.5312 29.2188C77.3021 26.1146 81.1042 24.5625 85.9375 24.5625C90.1667 24.5625 93.5521 25.7708 96.0938 28.1875C98.6562 30.5833 99.9583 33.7812 100 37.7812H91.5312C91.4896 36.0312 90.9479 34.6146 89.9062 33.5312C88.8646 32.4271 87.4896 31.875 85.7812 31.875C83.6771 31.875 82.0833 32.6458 81 34.1875C79.9375 35.7083 79.4062 38.1875 79.4062 41.625V42.5625C79.4062 46.0417 79.9375 48.5417 81 50.0625C82.0625 51.5833 83.6771 52.3438 85.8438 52.3438ZM114.688 59H105.625V25.1875H114.688V59ZM105.094 16.4375C105.094 15.0833 105.542 13.9688 106.438 13.0938C107.354 12.2188 108.594 11.7812 110.156 11.7812C111.698 11.7812 112.927 12.2188 113.844 13.0938C114.76 13.9688 115.219 15.0833 115.219 16.4375C115.219 17.8125 114.75 18.9375 113.812 19.8125C112.896 20.6875 111.677 21.125 110.156 21.125C108.635 21.125 107.406 20.6875 106.469 19.8125C105.552 18.9375 105.094 17.8125 105.094 16.4375ZM131.688 59H122.625V11H131.688V59ZM148.688 59H139.625V25.1875H148.688V59ZM139.094 16.4375C139.094 15.0833 139.542 13.9688 140.438 13.0938C141.354 12.2188 142.594 11.7812 144.156 11.7812C145.698 11.7812 146.927 12.2188 147.844 13.0938C148.76 13.9688 149.219 15.0833 149.219 16.4375C149.219 17.8125 148.75 18.9375 147.812 19.8125C146.896 20.6875 145.677 21.125 144.156 21.125C142.635 21.125 141.406 20.6875 140.469 19.8125C139.552 18.9375 139.094 17.8125 139.094 16.4375ZM166.969 16.875V25.1875H172.75V31.8125H166.969V48.6875C166.969 49.9375 167.208 50.8333 167.688 51.375C168.167 51.9167 169.083 52.1875 170.438 52.1875C171.438 52.1875 172.323 52.1146 173.094 51.9688V58.8125C171.323 59.3542 169.5 59.625 167.625 59.625C161.292 59.625 158.062 56.4271 157.938 50.0312V31.8125H153V25.1875H157.938V16.875H166.969ZM193.344 59.625C188.385 59.625 184.344 58.1042 181.219 55.0625C178.115 52.0208 176.562 47.9688 176.562 42.9062V42.0312C176.562 38.6354 177.219 35.6042 178.531 32.9375C179.844 30.25 181.698 28.1875 184.094 26.75C186.51 25.2917 189.26 24.5625 192.344 24.5625C196.969 24.5625 200.604 26.0208 203.25 28.9375C205.917 31.8542 207.25 35.9896 207.25 41.3438V45.0312H185.719C186.01 47.2396 186.885 49.0104 188.344 50.3438C189.823 51.6771 191.688 52.3438 193.938 52.3438C197.417 52.3438 200.135 51.0833 202.094 48.5625L206.531 53.5312C205.177 55.4479 203.344 56.9479 201.031 58.0312C198.719 59.0938 196.156 59.625 193.344 59.625ZM192.312 31.875C190.521 31.875 189.062 32.4792 187.938 33.6875C186.833 34.8958 186.125 36.625 185.812 38.875H198.375V38.1562C198.333 36.1562 197.792 34.6146 196.75 33.5312C195.708 32.4271 194.229 31.875 192.312 31.875ZM246.656 49.6562C246.656 48.5521 246.104 47.6875 245 47.0625C243.917 46.4167 242.167 45.8438 239.75 45.3438C231.708 43.6562 227.688 40.2396 227.688 35.0938C227.688 32.0938 228.927 29.5938 231.406 27.5938C233.906 25.5729 237.167 24.5625 241.188 24.5625C245.479 24.5625 248.906 25.5729 251.469 27.5938C254.052 29.6146 255.344 32.2396 255.344 35.4688H246.312C246.312 34.1771 245.896 33.1146 245.062 32.2812C244.229 31.4271 242.927 31 241.156 31C239.635 31 238.458 31.3438 237.625 32.0312C236.792 32.7188 236.375 33.5938 236.375 34.6562C236.375 35.6562 236.844 36.4688 237.781 37.0938C238.74 37.6979 240.344 38.2292 242.594 38.6875C244.844 39.125 246.74 39.625 248.281 40.1875C253.052 41.9375 255.438 44.9688 255.438 49.2812C255.438 52.3646 254.115 54.8646 251.469 56.7812C248.823 58.6771 245.406 59.625 241.219 59.625C238.385 59.625 235.865 59.125 233.656 58.125C231.469 57.1042 229.75 55.7188 228.5 53.9688C227.25 52.1979 226.625 50.2917 226.625 48.25H235.188C235.271 49.8542 235.865 51.0833 236.969 51.9375C238.073 52.7917 239.552 53.2188 241.406 53.2188C243.135 53.2188 244.438 52.8958 245.312 52.25C246.208 51.5833 246.656 50.7188 246.656 49.6562ZM281.531 55.5625C279.302 58.2708 276.219 59.625 272.281 59.625C268.656 59.625 265.885 58.5833 263.969 56.5C262.073 54.4167 261.104 51.3646 261.062 47.3438V25.1875H270.094V47.0312C270.094 50.5521 271.698 52.3125 274.906 52.3125C277.969 52.3125 280.073 51.25 281.219 49.125V25.1875H290.281V59H281.781L281.531 55.5625ZM316.688 59C316.271 58.1875 315.969 57.1771 315.781 55.9688C313.594 58.4062 310.75 59.625 307.25 59.625C303.938 59.625 301.188 58.6667 299 56.75C296.833 54.8333 295.75 52.4167 295.75 49.5C295.75 45.9167 297.073 43.1667 299.719 41.25C302.385 39.3333 306.229 38.3646 311.25 38.3438H315.406V36.4062C315.406 34.8438 315 33.5938 314.188 32.6562C313.396 31.7188 312.135 31.25 310.406 31.25C308.885 31.25 307.688 31.6146 306.812 32.3438C305.958 33.0729 305.531 34.0729 305.531 35.3438H296.5C296.5 33.3854 297.104 31.5729 298.312 29.9062C299.521 28.2396 301.229 26.9375 303.438 26C305.646 25.0417 308.125 24.5625 310.875 24.5625C315.042 24.5625 318.344 25.6146 320.781 27.7188C323.24 29.8021 324.469 32.7396 324.469 36.5312V51.1875C324.49 54.3958 324.938 56.8229 325.812 58.4688V59H316.688ZM309.219 52.7188C310.552 52.7188 311.781 52.4271 312.906 51.8438C314.031 51.2396 314.865 50.4375 315.406 49.4375V43.625H312.031C307.51 43.625 305.104 45.1875 304.812 48.3125L304.781 48.8438C304.781 49.9688 305.177 50.8958 305.969 51.625C306.76 52.3542 307.844 52.7188 309.219 52.7188ZM360 47.9688L366.281 25.1875H375.719L364.312 59H355.688L344.281 25.1875H353.719L360 47.9688ZM389.25 59H380.188V25.1875H389.25V59ZM379.656 16.4375C379.656 15.0833 380.104 13.9688 381 13.0938C381.917 12.2188 383.156 11.7812 384.719 11.7812C386.26 11.7812 387.49 12.2188 388.406 13.0938C389.323 13.9688 389.781 15.0833 389.781 16.4375C389.781 17.8125 389.312 18.9375 388.375 19.8125C387.458 20.6875 386.24 21.125 384.719 21.125C383.198 21.125 381.969 20.6875 381.031 19.8125C380.115 18.9375 379.656 17.8125 379.656 16.4375ZM395.312 41.8438C395.312 36.5729 396.49 32.375 398.844 29.25C401.219 26.125 404.458 24.5625 408.562 24.5625C411.854 24.5625 414.573 25.7917 416.719 28.25V11H425.781V59H417.625L417.188 55.4062C414.938 58.2188 412.042 59.625 408.5 59.625C404.521 59.625 401.323 58.0625 398.906 54.9375C396.51 51.7917 395.312 47.4271 395.312 41.8438ZM404.344 42.5C404.344 45.6667 404.896 48.0938 406 49.7812C407.104 51.4688 408.708 52.3125 410.812 52.3125C413.604 52.3125 415.573 51.1354 416.719 48.7812V35.4375C415.594 33.0833 413.646 31.9062 410.875 31.9062C406.521 31.9062 404.344 35.4375 404.344 42.5ZM452.375 59C451.958 58.1875 451.656 57.1771 451.469 55.9688C449.281 58.4062 446.438 59.625 442.938 59.625C439.625 59.625 436.875 58.6667 434.688 56.75C432.521 54.8333 431.438 52.4167 431.438 49.5C431.438 45.9167 432.76 43.1667 435.406 41.25C438.073 39.3333 441.917 38.3646 446.938 38.3438H451.094V36.4062C451.094 34.8438 450.688 33.5938 449.875 32.6562C449.083 31.7188 447.823 31.25 446.094 31.25C444.573 31.25 443.375 31.6146 442.5 32.3438C441.646 33.0729 441.219 34.0729 441.219 35.3438H432.188C432.188 33.3854 432.792 31.5729 434 29.9062C435.208 28.2396 436.917 26.9375 439.125 26C441.333 25.0417 443.812 24.5625 446.562 24.5625C450.729 24.5625 454.031 25.6146 456.469 27.7188C458.927 29.8021 460.156 32.7396 460.156 36.5312V51.1875C460.177 54.3958 460.625 56.8229 461.5 58.4688V59H452.375ZM444.906 52.7188C446.24 52.7188 447.469 52.4271 448.594 51.8438C449.719 51.2396 450.552 50.4375 451.094 49.4375V43.625H447.719C443.198 43.625 440.792 45.1875 440.5 48.3125L440.469 48.8438C440.469 49.9688 440.865 50.8958 441.656 51.625C442.448 52.3542 443.531 52.7188 444.906 52.7188ZM467.562 54.5625C467.562 53.125 468.042 51.9583 469 51.0625C469.979 50.1667 471.198 49.7188 472.656 49.7188C474.135 49.7188 475.354 50.1667 476.312 51.0625C477.292 51.9583 477.781 53.125 477.781 54.5625C477.781 55.9792 477.302 57.1354 476.344 58.0312C475.385 58.9062 474.156 59.3438 472.656 59.3438C471.177 59.3438 469.958 58.9062 469 58.0312C468.042 57.1354 467.562 55.9792 467.562 54.5625Z" fill="#FEF5F5"/>
<path d="M204.997 79.2109C204.909 80.4349 204.455 81.3984 203.638 82.1016C202.825 82.8047 201.752 83.1562 200.419 83.1562C198.961 83.1562 197.812 82.6667 196.974 81.6875C196.14 80.7031 195.724 79.3542 195.724 77.6406V76.9453C195.724 75.8516 195.916 74.888 196.302 74.0547C196.687 73.2214 197.237 72.5833 197.95 72.1406C198.669 71.6927 199.502 71.4688 200.45 71.4688C201.763 71.4688 202.82 71.8203 203.622 72.5234C204.424 73.2266 204.888 74.2135 205.013 75.4844H202.669C202.612 74.75 202.406 74.2188 202.052 73.8906C201.703 73.5573 201.169 73.3906 200.45 73.3906C199.669 73.3906 199.083 73.6719 198.692 74.2344C198.307 74.7917 198.109 75.6589 198.099 76.8359V77.6953C198.099 78.9245 198.284 79.8229 198.653 80.3906C199.028 80.9583 199.617 81.2422 200.419 81.2422C201.143 81.2422 201.682 81.0781 202.036 80.75C202.396 80.4167 202.601 79.9036 202.653 79.2109H204.997ZM211.138 76.6641C210.83 76.6224 210.56 76.6016 210.325 76.6016C209.471 76.6016 208.911 76.8906 208.646 77.4688V83H206.388V74.5469H208.521L208.583 75.5547C209.036 74.7786 209.664 74.3906 210.466 74.3906C210.716 74.3906 210.95 74.4245 211.169 74.4922L211.138 76.6641ZM214.614 83H212.349V74.5469H214.614V83ZM212.216 72.3594C212.216 72.0208 212.328 71.7422 212.552 71.5234C212.781 71.3047 213.091 71.1953 213.481 71.1953C213.867 71.1953 214.174 71.3047 214.403 71.5234C214.633 71.7422 214.747 72.0208 214.747 72.3594C214.747 72.7031 214.63 72.9844 214.396 73.2031C214.166 73.4219 213.862 73.5312 213.481 73.5312C213.101 73.5312 212.794 73.4219 212.56 73.2031C212.33 72.9844 212.216 72.7031 212.216 72.3594ZM220.372 83.1562C219.133 83.1562 218.122 82.776 217.341 82.0156C216.565 81.2552 216.177 80.2422 216.177 78.9766V78.7578C216.177 77.9089 216.341 77.151 216.669 76.4844C216.997 75.8125 217.461 75.2969 218.06 74.9375C218.664 74.5729 219.351 74.3906 220.122 74.3906C221.278 74.3906 222.187 74.7552 222.849 75.4844C223.515 76.2135 223.849 77.2474 223.849 78.5859V79.5078H218.466C218.539 80.0599 218.758 80.5026 219.122 80.8359C219.492 81.1693 219.958 81.3359 220.521 81.3359C221.39 81.3359 222.07 81.0208 222.56 80.3906L223.669 81.6328C223.33 82.112 222.872 82.487 222.294 82.7578C221.716 83.0234 221.075 83.1562 220.372 83.1562ZM220.114 76.2188C219.666 76.2188 219.302 76.3698 219.021 76.6719C218.744 76.974 218.567 77.4062 218.489 77.9688H221.63V77.7891C221.619 77.2891 221.484 76.9036 221.224 76.6328C220.963 76.3568 220.593 76.2188 220.114 76.2188ZM234.185 82.1406C233.627 82.8177 232.856 83.1562 231.872 83.1562C230.966 83.1562 230.273 82.8958 229.794 82.375C229.32 81.8542 229.078 81.0911 229.067 80.0859V74.5469H231.325V80.0078C231.325 80.888 231.726 81.3281 232.528 81.3281C233.294 81.3281 233.82 81.0625 234.106 80.5312V74.5469H236.372V83H234.247L234.185 82.1406ZM242.825 76.6641C242.518 76.6224 242.247 76.6016 242.013 76.6016C241.159 76.6016 240.599 76.8906 240.333 77.4688V83H238.075V74.5469H240.208L240.271 75.5547C240.724 74.7786 241.351 74.3906 242.153 74.3906C242.403 74.3906 242.638 74.4245 242.856 74.4922L242.825 76.6641ZM246.302 83H244.036V71H246.302V83ZM248.817 75.1172L247.755 74.5C248.203 73.7969 248.435 73.0703 248.45 72.3203V71H250.247V72.2109C250.247 72.6797 250.117 73.1875 249.856 73.7344C249.596 74.2812 249.25 74.7422 248.817 75.1172ZM254.606 80.6641C254.606 80.388 254.468 80.1719 254.192 80.0156C253.922 79.8542 253.484 79.7109 252.88 79.5859C250.869 79.1641 249.864 78.3099 249.864 77.0234C249.864 76.2734 250.174 75.6484 250.794 75.1484C251.419 74.6432 252.234 74.3906 253.239 74.3906C254.312 74.3906 255.169 74.6432 255.81 75.1484C256.455 75.6536 256.778 76.3099 256.778 77.1172H254.521C254.521 76.7943 254.416 76.5286 254.208 76.3203C254 76.1068 253.674 76 253.231 76C252.851 76 252.557 76.0859 252.349 76.2578C252.14 76.4297 252.036 76.6484 252.036 76.9141C252.036 77.1641 252.153 77.3672 252.388 77.5234C252.627 77.6745 253.028 77.8073 253.591 77.9219C254.153 78.0312 254.627 78.1562 255.013 78.2969C256.205 78.7344 256.802 79.4922 256.802 80.5703C256.802 81.3411 256.471 81.9661 255.81 82.4453C255.148 82.9193 254.294 83.1562 253.247 83.1562C252.539 83.1562 251.909 83.0312 251.356 82.7812C250.81 82.526 250.38 82.1797 250.067 81.7422C249.755 81.2995 249.599 80.8229 249.599 80.3125H251.739C251.76 80.7135 251.909 81.0208 252.185 81.2344C252.461 81.4479 252.83 81.5547 253.294 81.5547C253.726 81.5547 254.052 81.474 254.271 81.3125C254.494 81.1458 254.606 80.9297 254.606 80.6641ZM265.763 81.3359C266.179 81.3359 266.518 81.2214 266.778 80.9922C267.039 80.763 267.174 80.4583 267.185 80.0781H269.302C269.297 80.651 269.14 81.1771 268.833 81.6562C268.526 82.1302 268.104 82.5 267.567 82.7656C267.036 83.026 266.448 83.1562 265.802 83.1562C264.593 83.1562 263.64 82.7734 262.942 82.0078C262.244 81.237 261.896 80.1745 261.896 78.8203V78.6719C261.896 77.3698 262.242 76.3307 262.935 75.5547C263.627 74.7786 264.578 74.3906 265.786 74.3906C266.843 74.3906 267.69 74.6927 268.325 75.2969C268.966 75.8958 269.291 76.6953 269.302 77.6953H267.185C267.174 77.2578 267.039 76.9036 266.778 76.6328C266.518 76.3568 266.174 76.2188 265.747 76.2188C265.221 76.2188 264.823 76.4115 264.552 76.7969C264.286 77.1771 264.153 77.7969 264.153 78.6562V78.8906C264.153 79.7604 264.286 80.3854 264.552 80.7656C264.817 81.1458 265.221 81.3359 265.763 81.3359ZM275.653 82.1406C275.096 82.8177 274.325 83.1562 273.341 83.1562C272.435 83.1562 271.742 82.8958 271.263 82.375C270.789 81.8542 270.547 81.0911 270.536 80.0859V74.5469H272.794V80.0078C272.794 80.888 273.195 81.3281 273.997 81.3281C274.763 81.3281 275.289 81.0625 275.575 80.5312V74.5469H277.841V83H275.716L275.653 82.1406ZM284.294 76.6641C283.987 76.6224 283.716 76.6016 283.481 76.6016C282.627 76.6016 282.067 76.8906 281.802 77.4688V83H279.544V74.5469H281.677L281.739 75.5547C282.192 74.7786 282.82 74.3906 283.622 74.3906C283.872 74.3906 284.106 74.4245 284.325 74.4922L284.294 76.6641ZM288.481 72.4688V74.5469H289.927V76.2031H288.481V80.4219C288.481 80.7344 288.541 80.9583 288.661 81.0938C288.781 81.2292 289.01 81.2969 289.349 81.2969C289.599 81.2969 289.82 81.2786 290.013 81.2422V82.9531C289.57 83.0885 289.114 83.1562 288.646 83.1562C287.062 83.1562 286.255 82.3568 286.224 80.7578V76.2031H284.989V74.5469H286.224V72.4688H288.481ZM296.083 83C295.979 82.7969 295.903 82.5443 295.856 82.2422C295.31 82.8516 294.599 83.1562 293.724 83.1562C292.896 83.1562 292.208 82.9167 291.661 82.4375C291.119 81.9583 290.849 81.3542 290.849 80.625C290.849 79.7292 291.179 79.0417 291.841 78.5625C292.508 78.0833 293.468 77.8411 294.724 77.8359H295.763V77.3516C295.763 76.9609 295.661 76.6484 295.458 76.4141C295.26 76.1797 294.945 76.0625 294.513 76.0625C294.133 76.0625 293.833 76.1536 293.614 76.3359C293.401 76.5182 293.294 76.7682 293.294 77.0859H291.036C291.036 76.5964 291.187 76.1432 291.489 75.7266C291.791 75.3099 292.218 74.9844 292.771 74.75C293.323 74.5104 293.942 74.3906 294.63 74.3906C295.672 74.3906 296.497 74.6536 297.106 75.1797C297.721 75.7005 298.028 76.4349 298.028 77.3828V81.0469C298.034 81.849 298.146 82.4557 298.364 82.8672V83H296.083ZM294.216 81.4297C294.549 81.4297 294.856 81.3568 295.138 81.2109C295.419 81.0599 295.627 80.8594 295.763 80.6094V79.1562H294.919C293.789 79.1562 293.187 79.5469 293.114 80.3281L293.106 80.4609C293.106 80.7422 293.205 80.974 293.403 81.1562C293.601 81.3385 293.872 81.4297 294.216 81.4297ZM304.341 80.6641C304.341 80.388 304.203 80.1719 303.927 80.0156C303.656 79.8542 303.218 79.7109 302.614 79.5859C300.604 79.1641 299.599 78.3099 299.599 77.0234C299.599 76.2734 299.909 75.6484 300.528 75.1484C301.153 74.6432 301.968 74.3906 302.974 74.3906C304.047 74.3906 304.903 74.6432 305.544 75.1484C306.19 75.6536 306.513 76.3099 306.513 77.1172H304.255C304.255 76.7943 304.151 76.5286 303.942 76.3203C303.734 76.1068 303.409 76 302.966 76C302.586 76 302.291 76.0859 302.083 76.2578C301.875 76.4297 301.771 76.6484 301.771 76.9141C301.771 77.1641 301.888 77.3672 302.122 77.5234C302.362 77.6745 302.763 77.8073 303.325 77.9219C303.888 78.0312 304.362 78.1562 304.747 78.2969C305.94 78.7344 306.536 79.4922 306.536 80.5703C306.536 81.3411 306.205 81.9661 305.544 82.4453C304.883 82.9193 304.028 83.1562 302.981 83.1562C302.273 83.1562 301.643 83.0312 301.091 82.7812C300.544 82.526 300.114 82.1797 299.802 81.7422C299.489 81.2995 299.333 80.8229 299.333 80.3125H301.474C301.494 80.7135 301.643 81.0208 301.919 81.2344C302.195 81.4479 302.565 81.5547 303.028 81.5547C303.461 81.5547 303.786 81.474 304.005 81.3125C304.229 81.1458 304.341 80.9297 304.341 80.6641ZM315.872 83.1562C314.633 83.1562 313.622 82.776 312.841 82.0156C312.065 81.2552 311.677 80.2422 311.677 78.9766V78.7578C311.677 77.9089 311.841 77.151 312.169 76.4844C312.497 75.8125 312.961 75.2969 313.56 74.9375C314.164 74.5729 314.851 74.3906 315.622 74.3906C316.778 74.3906 317.687 74.7552 318.349 75.4844C319.015 76.2135 319.349 77.2474 319.349 78.5859V79.5078H313.966C314.039 80.0599 314.258 80.5026 314.622 80.8359C314.992 81.1693 315.458 81.3359 316.021 81.3359C316.89 81.3359 317.57 81.0208 318.06 80.3906L319.169 81.6328C318.83 82.112 318.372 82.487 317.794 82.7578C317.216 83.0234 316.575 83.1562 315.872 83.1562ZM315.614 76.2188C315.166 76.2188 314.802 76.3698 314.521 76.6719C314.244 76.974 314.067 77.4062 313.989 77.9688H317.13V77.7891C317.119 77.2891 316.984 76.9036 316.724 76.6328C316.463 76.3568 316.093 76.2188 315.614 76.2188ZM328.513 83.1562C327.273 83.1562 326.263 82.776 325.481 82.0156C324.705 81.2552 324.317 80.2422 324.317 78.9766V78.7578C324.317 77.9089 324.481 77.151 324.81 76.4844C325.138 75.8125 325.601 75.2969 326.2 74.9375C326.804 74.5729 327.492 74.3906 328.263 74.3906C329.419 74.3906 330.328 74.7552 330.989 75.4844C331.656 76.2135 331.989 77.2474 331.989 78.5859V79.5078H326.606C326.679 80.0599 326.898 80.5026 327.263 80.8359C327.633 81.1693 328.099 81.3359 328.661 81.3359C329.531 81.3359 330.211 81.0208 330.7 80.3906L331.81 81.6328C331.471 82.112 331.013 82.487 330.435 82.7578C329.856 83.0234 329.216 83.1562 328.513 83.1562ZM328.255 76.2188C327.807 76.2188 327.442 76.3698 327.161 76.6719C326.885 76.974 326.708 77.4062 326.63 77.9688H329.771V77.7891C329.76 77.2891 329.625 76.9036 329.364 76.6328C329.104 76.3568 328.734 76.2188 328.255 76.2188ZM336.794 81.3359C337.211 81.3359 337.549 81.2214 337.81 80.9922C338.07 80.763 338.205 80.4583 338.216 80.0781H340.333C340.328 80.651 340.172 81.1771 339.864 81.6562C339.557 82.1302 339.135 82.5 338.599 82.7656C338.067 83.026 337.479 83.1562 336.833 83.1562C335.625 83.1562 334.672 82.7734 333.974 82.0078C333.276 81.237 332.927 80.1745 332.927 78.8203V78.6719C332.927 77.3698 333.273 76.3307 333.966 75.5547C334.659 74.7786 335.609 74.3906 336.817 74.3906C337.875 74.3906 338.721 74.6927 339.356 75.2969C339.997 75.8958 340.323 76.6953 340.333 77.6953H338.216C338.205 77.2578 338.07 76.9036 337.81 76.6328C337.549 76.3568 337.205 76.2188 336.778 76.2188C336.252 76.2188 335.854 76.4115 335.583 76.7969C335.317 77.1771 335.185 77.7969 335.185 78.6562V78.8906C335.185 79.7604 335.317 80.3854 335.583 80.7656C335.849 81.1458 336.252 81.3359 336.794 81.3359ZM341.271 78.6953C341.271 77.8568 341.432 77.1094 341.755 76.4531C342.078 75.7969 342.541 75.2891 343.146 74.9297C343.755 74.5703 344.461 74.3906 345.263 74.3906C346.403 74.3906 347.333 74.7396 348.052 75.4375C348.776 76.1354 349.179 77.0833 349.263 78.2812L349.278 78.8594C349.278 80.1562 348.916 81.1979 348.192 81.9844C347.468 82.7656 346.497 83.1562 345.278 83.1562C344.06 83.1562 343.086 82.7656 342.356 81.9844C341.633 81.2031 341.271 80.1406 341.271 78.7969V78.6953ZM343.528 78.8594C343.528 79.6615 343.679 80.276 343.981 80.7031C344.284 81.125 344.716 81.3359 345.278 81.3359C345.825 81.3359 346.252 81.1276 346.56 80.7109C346.867 80.2891 347.021 79.6172 347.021 78.6953C347.021 77.9089 346.867 77.2995 346.56 76.8672C346.252 76.4349 345.82 76.2188 345.263 76.2188C344.711 76.2188 344.284 76.4349 343.981 76.8672C343.679 77.2943 343.528 77.9583 343.528 78.8594ZM352.747 74.5469L352.817 75.5234C353.422 74.7682 354.231 74.3906 355.247 74.3906C356.143 74.3906 356.81 74.6536 357.247 75.1797C357.685 75.7057 357.909 76.4922 357.919 77.5391V83H355.661V77.5938C355.661 77.1146 355.557 76.7682 355.349 76.5547C355.14 76.3359 354.794 76.2266 354.31 76.2266C353.674 76.2266 353.198 76.4974 352.88 77.0391V83H350.622V74.5469H352.747ZM359.286 78.6953C359.286 77.8568 359.448 77.1094 359.771 76.4531C360.093 75.7969 360.557 75.2891 361.161 74.9297C361.771 74.5703 362.476 74.3906 363.278 74.3906C364.419 74.3906 365.349 74.7396 366.067 75.4375C366.791 76.1354 367.195 77.0833 367.278 78.2812L367.294 78.8594C367.294 80.1562 366.932 81.1979 366.208 81.9844C365.484 82.7656 364.513 83.1562 363.294 83.1562C362.075 83.1562 361.101 82.7656 360.372 81.9844C359.648 81.2031 359.286 80.1406 359.286 78.7969V78.6953ZM361.544 78.8594C361.544 79.6615 361.695 80.276 361.997 80.7031C362.299 81.125 362.731 81.3359 363.294 81.3359C363.841 81.3359 364.268 81.1276 364.575 80.7109C364.883 80.2891 365.036 79.6172 365.036 78.6953C365.036 77.9089 364.883 77.2995 364.575 76.8672C364.268 76.4349 363.836 76.2188 363.278 76.2188C362.726 76.2188 362.299 76.4349 361.997 76.8672C361.695 77.2943 361.544 77.9583 361.544 78.8594ZM370.802 74.5469L370.872 75.4922C371.471 74.7578 372.281 74.3906 373.302 74.3906C374.39 74.3906 375.138 74.8203 375.544 75.6797C376.138 74.8203 376.984 74.3906 378.083 74.3906C379 74.3906 379.682 74.6589 380.13 75.1953C380.578 75.7266 380.802 76.5286 380.802 77.6016V83H378.536V77.6094C378.536 77.1302 378.442 76.7812 378.255 76.5625C378.067 76.3385 377.737 76.2266 377.263 76.2266C376.586 76.2266 376.117 76.5495 375.856 77.1953L375.864 83H373.606V77.6172C373.606 77.1276 373.51 76.7734 373.317 76.5547C373.125 76.3359 372.797 76.2266 372.333 76.2266C371.692 76.2266 371.229 76.4922 370.942 77.0234V83H368.685V74.5469H370.802ZM384.927 83H382.661V74.5469H384.927V83ZM382.528 72.3594C382.528 72.0208 382.64 71.7422 382.864 71.5234C383.093 71.3047 383.403 71.1953 383.794 71.1953C384.179 71.1953 384.487 71.3047 384.716 71.5234C384.945 71.7422 385.06 72.0208 385.06 72.3594C385.06 72.7031 384.942 72.9844 384.708 73.2031C384.479 73.4219 384.174 73.5312 383.794 73.5312C383.414 73.5312 383.106 73.4219 382.872 73.2031C382.643 72.9844 382.528 72.7031 382.528 72.3594ZM389.388 81.1797H393.521V83H386.505V81.625L390.481 76.375H386.622V74.5469H393.396V75.8828L389.388 81.1797ZM398.7 83.1562C397.461 83.1562 396.45 82.776 395.669 82.0156C394.893 81.2552 394.505 80.2422 394.505 78.9766V78.7578C394.505 77.9089 394.669 77.151 394.997 76.4844C395.325 75.8125 395.789 75.2969 396.388 74.9375C396.992 74.5729 397.679 74.3906 398.45 74.3906C399.606 74.3906 400.515 74.7552 401.177 75.4844C401.843 76.2135 402.177 77.2474 402.177 78.5859V79.5078H396.794C396.867 80.0599 397.086 80.5026 397.45 80.8359C397.82 81.1693 398.286 81.3359 398.849 81.3359C399.718 81.3359 400.398 81.0208 400.888 80.3906L401.997 81.6328C401.659 82.112 401.2 82.487 400.622 82.7578C400.044 83.0234 399.403 83.1562 398.7 83.1562ZM398.442 76.2188C397.994 76.2188 397.63 76.3698 397.349 76.6719C397.073 76.974 396.896 77.4062 396.817 77.9688H399.958V77.7891C399.948 77.2891 399.812 76.9036 399.552 76.6328C399.291 76.3568 398.922 76.2188 398.442 76.2188ZM412.028 80.6641C412.028 80.388 411.89 80.1719 411.614 80.0156C411.343 79.8542 410.906 79.7109 410.302 79.5859C408.291 79.1641 407.286 78.3099 407.286 77.0234C407.286 76.2734 407.596 75.6484 408.216 75.1484C408.841 74.6432 409.656 74.3906 410.661 74.3906C411.734 74.3906 412.591 74.6432 413.231 75.1484C413.877 75.6536 414.2 76.3099 414.2 77.1172H411.942C411.942 76.7943 411.838 76.5286 411.63 76.3203C411.422 76.1068 411.096 76 410.653 76C410.273 76 409.979 76.0859 409.771 76.2578C409.562 76.4297 409.458 76.6484 409.458 76.9141C409.458 77.1641 409.575 77.3672 409.81 77.5234C410.049 77.6745 410.45 77.8073 411.013 77.9219C411.575 78.0312 412.049 78.1562 412.435 78.2969C413.627 78.7344 414.224 79.4922 414.224 80.5703C414.224 81.3411 413.893 81.9661 413.231 82.4453C412.57 82.9193 411.716 83.1562 410.669 83.1562C409.961 83.1562 409.33 83.0312 408.778 82.7812C408.231 82.526 407.802 82.1797 407.489 81.7422C407.177 81.2995 407.021 80.8229 407.021 80.3125H409.161C409.182 80.7135 409.33 81.0208 409.606 81.2344C409.883 81.4479 410.252 81.5547 410.716 81.5547C411.148 81.5547 411.474 81.474 411.692 81.3125C411.916 81.1458 412.028 80.9297 412.028 80.6641ZM419.575 83.1562C418.336 83.1562 417.325 82.776 416.544 82.0156C415.768 81.2552 415.38 80.2422 415.38 78.9766V78.7578C415.38 77.9089 415.544 77.151 415.872 76.4844C416.2 75.8125 416.664 75.2969 417.263 74.9375C417.867 74.5729 418.554 74.3906 419.325 74.3906C420.481 74.3906 421.39 74.7552 422.052 75.4844C422.718 76.2135 423.052 77.2474 423.052 78.5859V79.5078H417.669C417.742 80.0599 417.961 80.5026 418.325 80.8359C418.695 81.1693 419.161 81.3359 419.724 81.3359C420.593 81.3359 421.273 81.0208 421.763 80.3906L422.872 81.6328C422.534 82.112 422.075 82.487 421.497 82.7578C420.919 83.0234 420.278 83.1562 419.575 83.1562ZM419.317 76.2188C418.869 76.2188 418.505 76.3698 418.224 76.6719C417.948 76.974 417.771 77.4062 417.692 77.9688H420.833V77.7891C420.823 77.2891 420.687 76.9036 420.427 76.6328C420.166 76.3568 419.797 76.2188 419.317 76.2188ZM429.403 82.1406C428.846 82.8177 428.075 83.1562 427.091 83.1562C426.185 83.1562 425.492 82.8958 425.013 82.375C424.539 81.8542 424.297 81.0911 424.286 80.0859V74.5469H426.544V80.0078C426.544 80.888 426.945 81.3281 427.747 81.3281C428.513 81.3281 429.039 81.0625 429.325 80.5312V74.5469H431.591V83H429.466L429.403 82.1406ZM439.981 72.4688V74.5469H441.427V76.2031H439.981V80.4219C439.981 80.7344 440.041 80.9583 440.161 81.0938C440.281 81.2292 440.51 81.2969 440.849 81.2969C441.099 81.2969 441.32 81.2786 441.513 81.2422V82.9531C441.07 83.0885 440.614 83.1562 440.146 83.1562C438.562 83.1562 437.755 82.3568 437.724 80.7578V76.2031H436.489V74.5469H437.724V72.4688H439.981ZM446.575 83.1562C445.336 83.1562 444.325 82.776 443.544 82.0156C442.768 81.2552 442.38 80.2422 442.38 78.9766V78.7578C442.38 77.9089 442.544 77.151 442.872 76.4844C443.2 75.8125 443.664 75.2969 444.263 74.9375C444.867 74.5729 445.554 74.3906 446.325 74.3906C447.481 74.3906 448.39 74.7552 449.052 75.4844C449.718 76.2135 450.052 77.2474 450.052 78.5859V79.5078H444.669C444.742 80.0599 444.961 80.5026 445.325 80.8359C445.695 81.1693 446.161 81.3359 446.724 81.3359C447.593 81.3359 448.273 81.0208 448.763 80.3906L449.872 81.6328C449.534 82.112 449.075 82.487 448.497 82.7578C447.919 83.0234 447.278 83.1562 446.575 83.1562ZM446.317 76.2188C445.869 76.2188 445.505 76.3698 445.224 76.6719C444.948 76.974 444.771 77.4062 444.692 77.9688H447.833V77.7891C447.823 77.2891 447.687 76.9036 447.427 76.6328C447.166 76.3568 446.797 76.2188 446.317 76.2188ZM453.458 74.5469L453.528 75.4922C454.127 74.7578 454.937 74.3906 455.958 74.3906C457.047 74.3906 457.794 74.8203 458.2 75.6797C458.794 74.8203 459.64 74.3906 460.739 74.3906C461.656 74.3906 462.338 74.6589 462.786 75.1953C463.234 75.7266 463.458 76.5286 463.458 77.6016V83H461.192V77.6094C461.192 77.1302 461.099 76.7812 460.911 76.5625C460.724 76.3385 460.393 76.2266 459.919 76.2266C459.242 76.2266 458.773 76.5495 458.513 77.1953L458.521 83H456.263V77.6172C456.263 77.1276 456.166 76.7734 455.974 76.5547C455.781 76.3359 455.453 76.2266 454.989 76.2266C454.349 76.2266 453.885 76.4922 453.599 77.0234V83H451.341V74.5469H453.458ZM472.81 78.8516C472.81 80.1536 472.513 81.1979 471.919 81.9844C471.33 82.7656 470.534 83.1562 469.528 83.1562C468.674 83.1562 467.984 82.8594 467.458 82.2656V86.25H465.2V74.5469H467.294L467.372 75.375C467.919 74.7188 468.633 74.3906 469.513 74.3906C470.554 74.3906 471.364 74.776 471.942 75.5469C472.521 76.3177 472.81 77.3802 472.81 78.7344V78.8516ZM470.552 78.6875C470.552 77.901 470.411 77.2943 470.13 76.8672C469.854 76.4401 469.45 76.2266 468.919 76.2266C468.211 76.2266 467.724 76.4974 467.458 77.0391V80.5C467.734 81.0573 468.226 81.3359 468.935 81.3359C470.013 81.3359 470.552 80.4531 470.552 78.6875ZM473.864 78.6953C473.864 77.8568 474.026 77.1094 474.349 76.4531C474.672 75.7969 475.135 75.2891 475.739 74.9297C476.349 74.5703 477.054 74.3906 477.856 74.3906C478.997 74.3906 479.927 74.7396 480.646 75.4375C481.369 76.1354 481.773 77.0833 481.856 78.2812L481.872 78.8594C481.872 80.1562 481.51 81.1979 480.786 81.9844C480.062 82.7656 479.091 83.1562 477.872 83.1562C476.653 83.1562 475.679 82.7656 474.95 81.9844C474.226 81.2031 473.864 80.1406 473.864 78.7969V78.6953ZM476.122 78.8594C476.122 79.6615 476.273 80.276 476.575 80.7031C476.877 81.125 477.31 81.3359 477.872 81.3359C478.419 81.3359 478.846 81.1276 479.153 80.7109C479.461 80.2891 479.614 79.6172 479.614 78.6953C479.614 77.9089 479.461 77.2995 479.153 76.8672C478.846 76.4349 478.414 76.2188 477.856 76.2188C477.304 76.2188 476.877 76.4349 476.575 76.8672C476.273 77.2943 476.122 77.9583 476.122 78.8594Z" fill="#FEF5F5"/>
</svg>
